<?xml version="1.0" encoding="UTF-8" standalone="no"?>
<!DOCTYPE svg  PUBLIC '-//W3C//DTD SVG 1.1//EN'  'http://www.w3.org/Graphics/SVG/1.1/DTD/svg11.dtd'>
<svg xmlns="http://www.w3.org/2000/svg">
<defs>
<font id="Geometria-Light" horiz-adv-x="607">
<font-face underline-position="-50" font-weight="300" descent="-200" panose-1="2 11 4 3 2 2 4 2 2 4" units-per-em="1000" unicode-range="U+0020-2215" bbox="-308 -220 1093 923" x-height="478" underline-thickness="50" font-family="Geometria" ascent="800" cap-height="700"/>
<missing-glyph horiz-adv-x="1000"/>
<glyph glyph-name="ij" horiz-adv-x="493" unicode="ij" d="M326 646q0 16 12 28t28 12t28 -12t12 -28t-12 -28t-28 -12t-28 12t-12 28zM262 -204q-48 0 -78 18v46q33 -19 69 -19q89 0 89 102v535h49v-543q0 -74 -36.5 -106.5t-92.5 -32.5zM87 646q0 16 11.5 28t28.5 12t28.5 -12t11.5 -28t-11.5 -28t-28.5 -12t-28.5 12t-11.5 28z M103 0v478h49v-478h-49z"/>
<glyph glyph-name=".notdef" horiz-adv-x="1000"/>
<glyph glyph-name=".null" horiz-adv-x="0"/>
<glyph glyph-name="nonmarkingreturn" horiz-adv-x="333"/>
<glyph glyph-name="space" horiz-adv-x="267" unicode=" "/>
<glyph glyph-name="exclam" horiz-adv-x="267" unicode="!" d="M94 37q0 17 12 28.5t28 11.5t28 -11.5t12 -28.5t-12 -28.5t-28 -11.5t-28 11.5t-12 28.5zM111 209l-7 491h59l-7 -491h-45z"/>
<glyph glyph-name="quotedbl" horiz-adv-x="345" unicode='&quot;' d="M240 461v239h46v-239h-46zM59 461v239h47v-239h-47z"/>
<glyph glyph-name="numbersign" horiz-adv-x="714" unicode="#" d="M235 241h210l34 217h-209zM150 0l31 197h-147l8 44h145l35 217h-147l8 44h145l33 198h46l-31 -198h210l31 198h47l-31 -198h147l-7 -44h-147l-34 -217h147l-7 -44h-148l-31 -197h-47l32 197h-210l-32 -197h-46z"/>
<glyph glyph-name="dollar" horiz-adv-x="624" unicode="$" d="M329 -114h-51v103q-71 4 -132 25t-98 49v57q39 -34 107.5 -59.5t144.5 -25.5q90 0 148 40.5t58 108.5q0 22 -6.5 40t-14.5 31t-26.5 25.5t-30.5 19.5t-40.5 16.5t-42.5 13.5t-48 14q-59 17 -92 29.5t-68.5 34.5t-51.5 54t-16 76q0 70 54.5 118.5t154.5 54.5v103h51v-103 q104 -6 186 -58v-53q-94 64 -211 64q-92 0 -138.5 -36.5t-46.5 -90.5q0 -19 6.5 -35.5t13.5 -28t26 -23.5t30 -18.5t40 -16t41.5 -13.5t48.5 -14q42 -12 68 -21t61 -26.5t54.5 -37t34 -50.5t14.5 -69q0 -87 -65.5 -138t-162.5 -57v-103z"/>
<glyph glyph-name="percent" horiz-adv-x="823" unicode="%" d="M605 -12q-71 0 -118 48.5t-47 118.5t47 118.5t118 48.5q70 0 117 -48.5t47 -118.5t-47 -118.5t-117 -48.5zM605 28q53 0 86.5 36.5t33.5 90.5t-33.5 90.5t-86.5 36.5t-87 -36.5t-34 -90.5t34 -90.5t87 -36.5zM183 0l407 700h51l-408 -700h-50zM218 378q-71 0 -117.5 48.5 t-46.5 118.5t46.5 118.5t117.5 48.5t117.5 -48.5t46.5 -118.5t-46.5 -118.5t-117.5 -48.5zM218 418q53 0 87 36.5t34 90.5t-34 90.5t-87 36.5t-86.5 -36.5t-33.5 -90.5t33.5 -90.5t86.5 -36.5z"/>
<glyph glyph-name="ampersand" horiz-adv-x="704" unicode="&amp;" d="M304 33q113 0 192 79l-274 264q-49 -15 -85 -59t-36 -107q0 -80 58 -128.5t145 -48.5zM496 656v-54q-72 65 -164 65q-67 0 -106.5 -33t-39.5 -89q0 -40 20 -73.5t61 -73.5l259 -250q64 91 68 224h49q-6 -153 -83 -257l120 -115h-68l-82 79q-93 -91 -227 -91 q-102 0 -177 59t-75 163q0 78 43.5 129t95.5 73q-54 61 -54 134q0 74 54 120t135 46q101 0 171 -56z"/>
<glyph glyph-name="quotesingle" horiz-adv-x="165" unicode="&apos;" d="M59 461v239h47v-239h-47z"/>
<glyph glyph-name="parenleft" horiz-adv-x="353" unicode="(" d="M305 -206h-54q-150 187 -150 456q0 266 150 456h54q-157 -205 -157 -456q0 -255 157 -456z"/>
<glyph glyph-name="parenright" horiz-adv-x="353" unicode=")" d="M102 -206h-54q157 201 157 456q0 251 -157 456h54q150 -193 150 -456q0 -267 -150 -456z"/>
<glyph glyph-name="asterisk" horiz-adv-x="426" unicode="*" d="M193 347l2 145l-124 -76l-21 36l126 72l-126 70l21 37l124 -76l-2 145h41l-2 -145l124 76l20 -37l-126 -70l126 -72l-20 -36l-124 76l2 -145h-41z"/>
<glyph glyph-name="plus" horiz-adv-x="609" unicode="+" d="M282 90v211h-212v45h212v212h45v-212h212v-45h-212v-211h-45z"/>
<glyph glyph-name="comma" horiz-adv-x="224" unicode="," d="M22 -152l76 241h60l-94 -241h-42z"/>
<glyph glyph-name="hyphen" horiz-adv-x="477" unicode="-" d="M103 247v45h271v-45h-271z"/>
<glyph glyph-name="period" horiz-adv-x="224" unicode="." d="M72 37q0 17 12 28.5t28 11.5t28 -11.5t12 -28.5t-12 -28.5t-28 -11.5t-28 11.5t-12 28.5z"/>
<glyph glyph-name="slash" horiz-adv-x="501" unicode="/" d="M14 -140l421 932h51l-421 -932h-51z"/>
<glyph glyph-name="zero" horiz-adv-x="706" unicode="0" d="M353 35q101 0 166.5 89.5t65.5 225.5q0 135 -65.5 224.5t-166.5 89.5q-100 0 -166 -89.5t-66 -224.5t66 -225t166 -90zM353 -12q-124 0 -203 103.5t-79 258.5t79 258.5t203 103.5t203 -104t79 -258t-79 -258t-203 -104z"/>
<glyph glyph-name="one" horiz-adv-x="364" unicode="1" d="M198 0v646l-161 -98v50l165 102h46v-700h-50z"/>
<glyph glyph-name="two" horiz-adv-x="572" unicode="2" d="M45 0l1 39l245 237q80 77 113 126t33 111q0 67 -47 109t-125 42q-113 0 -205 -98v61q85 85 210 85q95 0 156.5 -54t61.5 -141q0 -70 -35 -126.5t-120 -138.5l-212 -206h395v-46h-471z"/>
<glyph glyph-name="three" horiz-adv-x="567" unicode="3" d="M242 -12q-120 0 -201 51v54q78 -58 197 -58q87 0 151 49.5t64 133.5q0 78 -57 126.5t-151 48.5q-34 0 -71 -8v35l235 234h-336v46h405v-37l-228 -228q102 -1 177.5 -58.5t75.5 -158.5q0 -102 -74.5 -166t-186.5 -64z"/>
<glyph glyph-name="four" horiz-adv-x="628" unicode="4" d="M100 248h324v382zM424 0v202h-385v41l387 457h48v-452h118v-46h-118v-202h-50z"/>
<glyph glyph-name="five" horiz-adv-x="597" unicode="5" d="M257 -12q-111 0 -192 46v52q83 -51 191 -51q96 0 159.5 52t63.5 130q0 75 -59 124t-156 49q-91 0 -168 -28l46 338h338v-46h-299l-32 -232q48 15 126 15q109 0 181.5 -62.5t72.5 -157.5q0 -100 -77.5 -164.5t-194.5 -64.5z"/>
<glyph glyph-name="six" horiz-adv-x="638" unicode="6" d="M334 35q77 0 131 53t54 133q0 78 -54.5 126.5t-133.5 48.5q-68 0 -124.5 -43.5t-78.5 -108.5q11 -99 62.5 -154t143.5 -55zM335 -12q-120 0 -190.5 86t-70.5 241q0 172 82 284.5t218 112.5q83 0 146 -43v-49q-67 44 -142 44q-83 0 -142 -49.5t-85.5 -126t-26.5 -170.5 q26 54 84 89.5t134 35.5q95 0 161 -62.5t66 -158.5q0 -102 -67 -168t-167 -66z"/>
<glyph glyph-name="seven" horiz-adv-x="545" unicode="7" d="M108 0l331 654h-391v46h450v-37l-337 -663h-53z"/>
<glyph glyph-name="eight" horiz-adv-x="646" unicode="8" d="M322 35q90 0 151 44.5t61 111.5q0 68 -60.5 111t-151.5 43q-90 0 -150.5 -43t-60.5 -111q0 -67 61 -111.5t150 -44.5zM146 529q0 -59 50.5 -98t127.5 -39q75 0 125 39t50 98q0 61 -49.5 98t-125.5 37q-78 0 -128 -37t-50 -98zM423 371q75 -18 118.5 -65.5t43.5 -117.5 q0 -90 -74.5 -145t-187.5 -55t-188 55t-75 145q0 70 43.5 117.5t118.5 65.5q-57 19 -91.5 61t-34.5 100q0 80 64 130t163 50q97 0 161.5 -50t64.5 -130q0 -58 -34 -100t-92 -61z"/>
<glyph glyph-name="nine" horiz-adv-x="638" unicode="9" d="M305 664q-78 0 -131.5 -52.5t-53.5 -132.5q0 -78 54.5 -126.5t133.5 -48.5q68 0 124.5 43.5t78.5 108.5q-11 99 -62.5 153.5t-143.5 54.5zM304 712q120 0 190.5 -86t70.5 -241q0 -172 -82 -284.5t-218 -112.5q-83 0 -146 43v49q66 -45 142 -45q83 0 141.5 49.5t85 126 t27.5 171.5q-26 -54 -84.5 -89.5t-133.5 -35.5q-95 0 -161 62.5t-66 158.5q0 102 67 168t167 66z"/>
<glyph glyph-name="colon" horiz-adv-x="224" unicode=":" d="M72 37q0 17 12 28.5t28 11.5t28 -11.5t12 -28.5t-12 -28.5t-28 -11.5t-28 11.5t-12 28.5zM72 424q0 16 12 28t28 12t28 -12t12 -28t-12 -28t-28 -12t-28 12t-12 28z"/>
<glyph glyph-name="semicolon" horiz-adv-x="225" unicode=";" d="M76 424q0 16 12 28t28 12t28 -12t12 -28t-12 -28t-28 -12t-28 12t-12 28zM22 -152l76 241h60l-94 -241h-42z"/>
<glyph glyph-name="less" horiz-adv-x="609" unicode="&lt;" d="M539 94l-469 204v46l469 203v-48l-413 -179l413 -176v-50z"/>
<glyph glyph-name="equal" horiz-adv-x="609" unicode="=" d="M70 415v44h469v-44h-469zM70 187v44h469v-44h-469z"/>
<glyph glyph-name="greater" horiz-adv-x="609" unicode="&gt;" d="M70 94v50l413 176l-413 179v48l469 -203v-46z"/>
<glyph glyph-name="question" horiz-adv-x="468" unicode="?" d="M169 37q0 17 11.5 28.5t28.5 11.5t28.5 -11.5t11.5 -28.5t-11.5 -28.5t-28.5 -11.5t-28.5 11.5t-11.5 28.5zM183 209v143q72 16 127.5 61t55.5 107q0 63 -46.5 102.5t-117.5 39.5q-90 0 -171 -60v49q72 56 176 56q87 0 148 -51.5t61 -133.5q0 -72 -53 -122.5t-133 -74.5 v-116h-47z"/>
<glyph glyph-name="at" horiz-adv-x="967" unicode="@" d="M479 112q44 0 83.5 24.5t61.5 61.5v152q-22 37 -61.5 61.5t-83.5 24.5q-67 0 -112.5 -47t-45.5 -115t45.5 -115t112.5 -47zM485 -162q-180 0 -305.5 125.5t-125.5 311.5q0 185 126 311t305 126q183 0 305.5 -119t122.5 -292q0 -102 -45 -168t-121 -66q-47 0 -76 24 t-40 58q-22 -32 -65.5 -57.5t-97.5 -25.5q-87 0 -142.5 61.5t-55.5 146.5t55.5 146.5t142.5 61.5q95 0 156 -77v62h48v-268q0 -52 23 -79t62 -27q58 0 94.5 58.5t36.5 150.5q0 103 -48.5 190.5t-142 141.5t-212.5 54q-174 0 -290 -120.5t-116 -292.5q0 -173 115 -293 t291 -120q111 0 204 48v-25q-91 -47 -204 -47z"/>
<glyph glyph-name="A" horiz-adv-x="744" unicode="A" d="M195 248h355l-177 391zM33 0l317 704h46l316 -704h-52l-92 204h-391l-92 -204h-52z"/>
<glyph glyph-name="B" horiz-adv-x="720" unicode="B" d="M154 395h239q74 0 114 33.5t40 95.5t-40 96t-114 34h-239v-259zM154 46h271q86 0 133 40t47 113t-47 112.5t-133 39.5h-271v-305zM104 0v700h295q93 0 145 -45t52 -124q0 -113 -96 -150q75 -11 117 -60.5t42 -126.5q0 -88 -60 -141t-166 -53h-329z"/>
<glyph glyph-name="C" horiz-adv-x="693" unicode="C" d="M427 -12q-150 0 -251.5 102.5t-101.5 259.5t101.5 259.5t251.5 102.5q115 0 200 -55v-53q-93 60 -199 60q-128 0 -215.5 -89.5t-87.5 -224.5t88 -225t216 -90q122 0 214 73v-55q-88 -65 -216 -65z"/>
<glyph glyph-name="D" horiz-adv-x="775" unicode="D" d="M154 46h161q155 0 244.5 83t89.5 221t-89.5 221t-244.5 83h-161v-608zM104 0v700h219q168 0 272.5 -97t104.5 -253t-104.5 -253t-272.5 -97h-219z"/>
<glyph glyph-name="E" horiz-adv-x="637" unicode="E" d="M104 0v700h470v-46h-420v-254h347v-47h-347v-307h436v-46h-486z"/>
<glyph glyph-name="F" horiz-adv-x="618" unicode="F" d="M104 0v700h465v-46h-415v-263h343v-47h-343v-344h-50z"/>
<glyph glyph-name="G" horiz-adv-x="782" unicode="G" d="M426 -12q-149 0 -250.5 102.5t-101.5 259.5t101 259.5t251 102.5q135 0 228 -72v-53q-98 77 -224 77q-130 0 -217.5 -89t-87.5 -226q0 -136 87 -225t214 -89q140 0 218 82v284h50v-303q-101 -110 -268 -110z"/>
<glyph glyph-name="H" horiz-adv-x="760" unicode="H" d="M104 0v700h50v-300h451v300h50v-700h-50v353h-451v-353h-50z"/>
<glyph glyph-name="I" horiz-adv-x="271" unicode="I" d="M111 0v700h50v-700h-50z"/>
<glyph glyph-name="J" horiz-adv-x="504" unicode="J" d="M195 -12q-93 0 -158 47v54q62 -54 150 -54q172 0 172 181v484h50v-492q0 -110 -56 -165t-158 -55z"/>
<glyph glyph-name="K" horiz-adv-x="641" unicode="K" d="M104 0v700h50v-308l352 308h69l-365 -321l421 -379h-75l-402 363v-363h-50z"/>
<glyph glyph-name="L" horiz-adv-x="593" unicode="L" d="M104 0v700h50v-654h405v-46h-455z"/>
<glyph glyph-name="M" horiz-adv-x="847" unicode="M" d="M104 0v700h51l269 -354l269 354h49v-700h-50v623l-252 -332h-32l-254 332v-623h-50z"/>
<glyph glyph-name="N" horiz-adv-x="775" unicode="N" d="M104 0v700h44l472 -613v613h50v-700h-43l-473 614v-614h-50z"/>
<glyph glyph-name="O" horiz-adv-x="846" unicode="O" d="M423 -12q-150 0 -249.5 103t-99.5 259q0 155 100 258.5t249 103.5q148 0 248 -103.5t100 -258.5t-100 -258.5t-248 -103.5zM423 35q125 0 211 90t86 225t-86 224.5t-211 89.5q-126 0 -212 -89.5t-86 -224.5t86.5 -225t211.5 -90z"/>
<glyph glyph-name="P" horiz-adv-x="665" unicode="P" d="M154 367h237q82 0 127 37.5t45 106.5q0 68 -45 105.5t-127 37.5h-237v-287zM104 0v700h292q103 0 160 -51.5t57 -137.5t-57 -138t-160 -52h-242v-321h-50z"/>
<glyph glyph-name="Q" horiz-adv-x="846" unicode="Q" d="M423 35q125 0 211 90t86 225t-86 224.5t-211 89.5q-126 0 -212 -89.5t-86 -224.5t86.5 -225t211.5 -90zM423 -12q-150 0 -249.5 103t-99.5 259q0 155 100 258.5t249 103.5q148 0 248 -103.5t100 -258.5q0 -126 -68 -220t-177 -127q67 -73 140 -73q50 0 83 24v-51 q-38 -20 -86 -20q-52 0 -97.5 28t-96.5 81q-20 -4 -46 -4z"/>
<glyph glyph-name="R" horiz-adv-x="736" unicode="R" d="M154 373h257q80 0 124 36.5t44 104.5q0 67 -44 103.5t-124 36.5h-257v-281zM104 0v700h311q101 0 157.5 -50.5t56.5 -134.5q0 -76 -45 -125t-128 -59l229 -331h-58l-228 327h-245v-327h-50z"/>
<glyph glyph-name="S" horiz-adv-x="624" unicode="S" d="M304 -12q-78 0 -147 22t-109 53v57q39 -34 107.5 -59.5t144.5 -25.5q90 0 148 40.5t58 108.5q0 22 -6.5 40t-14.5 31t-26.5 25.5t-30.5 19.5t-40.5 16.5t-42.5 13.5t-48 14q-59 17 -92 29.5t-68.5 34.5t-51.5 54t-16 76q0 75 61 124.5t172 49.5q121 0 213 -59v-53 q-94 64 -211 64q-92 0 -138.5 -36.5t-46.5 -90.5q0 -19 6.5 -35.5t13.5 -28t26 -23.5t30 -18.5t40 -16t41.5 -13.5t48.5 -14q42 -12 68 -21t61 -26.5t54.5 -37t34 -50.5t14.5 -69q0 -92 -73.5 -144t-179.5 -52z"/>
<glyph glyph-name="T" horiz-adv-x="621" unicode="T" d="M286 0v654h-250v46h550v-46h-250v-654h-50z"/>
<glyph glyph-name="U" horiz-adv-x="747" unicode="U" d="M374 -12q-127 0 -204 81.5t-77 229.5v401h50v-401q0 -125 62 -194.5t169 -69.5t168.5 69t61.5 195v401h50v-401q0 -148 -77.5 -229.5t-202.5 -81.5z"/>
<glyph glyph-name="V" horiz-adv-x="749" unicode="V" d="M351 -4l-313 704h55l282 -634l281 634h55l-314 -704h-46z"/>
<glyph glyph-name="W" horiz-adv-x="1043" unicode="W" d="M288 -4l-244 704h56l212 -621l188 623h42l190 -623l211 621h55l-243 -704h-45l-188 616l-191 -616h-43z"/>
<glyph glyph-name="X" horiz-adv-x="699" unicode="X" d="M37 0l282 380l-237 320h60l209 -279l208 279h60l-239 -319l285 -381h-61l-254 340l-255 -340h-58z"/>
<glyph glyph-name="Y" horiz-adv-x="649" unicode="Y" d="M298 0v324l-272 376h60l238 -329l240 329h57l-273 -375v-325h-50z"/>
<glyph glyph-name="Z" horiz-adv-x="639" unicode="Z" d="M53 0v36l451 618h-424v46h490v-36l-446 -618h462v-46h-533z"/>
<glyph glyph-name="bracketleft" horiz-adv-x="373" unicode="[" d="M99 -206v912h234v-43h-187v-826h187v-43h-234z"/>
<glyph glyph-name="backslash" horiz-adv-x="500" unicode="\" d="M437 -140l-421 932h52l421 -932h-52z"/>
<glyph glyph-name="bracketright" horiz-adv-x="373" unicode="]" d="M273 706v-912h-233v43h186v826h-186v43h233z"/>
<glyph glyph-name="asciicircum" horiz-adv-x="504" unicode="^" d="M59 349l169 360h47l169 -360h-47l-145 312l-143 -312h-50z"/>
<glyph glyph-name="underscore" horiz-adv-x="610" unicode="_" d="M8 -120v38h594v-38h-594z"/>
<glyph glyph-name="grave" horiz-adv-x="522" unicode="`" d="M285 577l-111 130h67l96 -130h-52z"/>
<glyph glyph-name="a" horiz-adv-x="590" unicode="a" d="M232 -12q-75 0 -129.5 41.5t-54.5 115.5q0 70 56.5 113t141.5 43q101 0 185 -51v61q0 134 -168 134q-88 0 -161 -51v49q72 47 170 47q93 0 150.5 -43.5t57.5 -131.5v-210q0 -31 14 -49t37 -18q16 0 28 6v-40q-13 -8 -40 -8q-33 0 -56.5 20.5t-26.5 61.5q-81 -90 -204 -90 zM246 33q58 0 107 27.5t78 65.5v78q-80 54 -172 54q-75 0 -117.5 -30.5t-42.5 -81.5q0 -57 42.5 -85t104.5 -28z"/>
<glyph glyph-name="b" horiz-adv-x="631" unicode="b" d="M324 33q87 0 145 59t58 146q0 88 -58 147.5t-145 59.5q-60 0 -110.5 -33.5t-75.5 -84.5v-177q24 -52 75 -84.5t111 -32.5zM334 -12q-127 0 -196 95v-83h-49v700h49v-306q70 96 196 96q107 0 175 -74.5t68 -177.5q0 -102 -68 -176t-175 -74z"/>
<glyph glyph-name="c" horiz-adv-x="524" unicode="c" d="M306 -12q-109 0 -180.5 73t-71.5 178t71.5 178t181.5 73q81 0 144 -37v-47q-67 39 -138 39q-89 0 -149 -59.5t-60 -147.5t60 -146.5t149 -58.5q83 0 147 45v-48q-64 -42 -154 -42z"/>
<glyph glyph-name="d" horiz-adv-x="632" unicode="d" d="M307 33q60 0 111 32.5t75 84.5v177q-25 51 -75.5 84.5t-110.5 33.5q-87 0 -145 -59.5t-58 -147.5q0 -87 58 -146t145 -59zM297 -12q-107 0 -175 74t-68 176q0 103 68 177.5t175 74.5q126 0 196 -96v306h49v-700h-49v83q-69 -95 -196 -95z"/>
<glyph glyph-name="e" horiz-adv-x="568" unicode="e" d="M104 273h360q0 27 -9.5 55.5t-29 55.5t-54.5 44t-80 17q-82 0 -132.5 -52.5t-54.5 -119.5zM315 -12q-112 0 -186.5 70.5t-74.5 179.5q0 108 66.5 180t171.5 72q48 0 87 -16t63.5 -41.5t41 -58.5t23 -64.5t6.5 -62.5v-16h-410q3 -88 63.5 -143t155.5 -55q89 0 154 45v-47 q-57 -43 -161 -43z"/>
<glyph glyph-name="f" horiz-adv-x="376" unicode="f" d="M175 0h-49v434h-98v44h98v93q0 63 33 99.5t95 36.5q55 0 94 -20v-46q-40 21 -84 21q-43 0 -66 -26.5t-23 -75.5v-82h173v-44h-173v-434z"/>
<glyph glyph-name="g" horiz-adv-x="631" unicode="g" d="M493 153v176q-24 52 -74 84t-111 32q-88 0 -146 -58.5t-58 -144.5q0 -88 58 -146t146 -58q61 0 111 31.5t74 83.5zM493 478h49v-456q0 -109 -71.5 -167.5t-182.5 -58.5q-102 0 -184 45v49q81 -49 181 -49q94 0 151 45t57 136v64q-68 -93 -195 -93q-107 0 -175.5 73 t-68.5 176q0 102 68.5 175t175.5 73q127 0 195 -94v82z"/>
<glyph glyph-name="h" horiz-adv-x="605" unicode="h" d="M138 0h-49v700h49v-304q32 39 84.5 66.5t117.5 27.5q92 0 138.5 -52t46.5 -147v-291h-49v281q0 50 -14 84t-38.5 50t-48 22.5t-50.5 6.5q-55 0 -108 -33t-79 -76v-335z"/>
<glyph glyph-name="i" horiz-adv-x="255" unicode="i" d="M87 646q0 16 11.5 28t28.5 12t28.5 -12t11.5 -28t-11.5 -28t-28.5 -12t-28.5 12t-11.5 28zM103 0v478h49v-478h-49z"/>
<glyph glyph-name="j" horiz-adv-x="255" unicode="j" d="M87 646q0 16 11.5 28t28.5 12t28.5 -12t11.5 -28t-11.5 -28t-28.5 -12t-28.5 12t-11.5 28zM23 -204q-48 0 -78 18v46q33 -19 69 -19q89 0 89 102v535h49v-543q0 -74 -36.5 -106.5t-92.5 -32.5z"/>
<glyph glyph-name="k" horiz-adv-x="519" unicode="k" d="M89 0v700h49v-423l248 201h71l-267 -216l303 -262h-73l-282 243v-243h-49z"/>
<glyph glyph-name="l" horiz-adv-x="281" unicode="l" d="M193 -12q-43 0 -73.5 25.5t-30.5 86.5v600h49v-589q0 -76 70 -76q27 0 50 14v-47q-25 -14 -65 -14z"/>
<glyph glyph-name="m" horiz-adv-x="914" unicode="m" d="M89 0v478h49v-78q25 39 72 64.5t108 25.5q121 0 155 -101q69 101 191 101q81 0 125.5 -49.5t44.5 -142.5v-298h-49v288q0 49 -13.5 82.5t-36 48t-42 20t-41.5 5.5q-51 0 -98 -32.5t-70 -79.5q2 -38 2 -50v-282h-49v289q0 155 -132 155q-49 0 -95 -30.5t-72 -76.5v-337 h-49z"/>
<glyph glyph-name="n" horiz-adv-x="605" unicode="n" d="M138 0h-49v478h49v-82q32 39 84.5 66.5t117.5 27.5q92 0 138.5 -52t46.5 -147v-291h-49v281q0 50 -14 84t-38.5 50t-48 22.5t-50.5 6.5q-55 0 -108 -33t-79 -76v-335z"/>
<glyph glyph-name="o" horiz-adv-x="617" unicode="o" d="M308 -12q-112 0 -183 73.5t-71 176.5t71 177.5t183 74.5q113 0 184 -74.5t71 -177.5t-71 -176.5t-184 -73.5zM308 33q87 0 146 59.5t59 145.5q0 88 -59 147.5t-146 59.5t-145.5 -59.5t-58.5 -147.5q0 -87 58.5 -146t145.5 -59z"/>
<glyph glyph-name="p" horiz-adv-x="631" unicode="p" d="M324 445q-60 0 -111 -32.5t-75 -84.5v-177q24 -51 75 -84.5t111 -33.5q87 0 145 59.5t58 146.5t-58 146.5t-145 59.5zM334 490q107 0 175 -74t68 -177t-68 -177t-175 -74q-126 0 -196 96v-284h-49v678h49v-83q69 95 196 95z"/>
<glyph glyph-name="q" horiz-adv-x="632" unicode="q" d="M307 445q-87 0 -145 -59.5t-58 -146.5t58 -146.5t145 -59.5q60 0 111 33.5t75 84.5v177q-24 52 -75 84.5t-111 32.5zM297 490q127 0 196 -95v83h49v-678h-49v284q-70 -96 -196 -96q-107 0 -175 74t-68 177t68 177t175 74z"/>
<glyph glyph-name="r" horiz-adv-x="348" unicode="r" d="M89 0v478h49v-99q26 45 78.5 78t114.5 33v-50q-68 0 -119.5 -38t-73.5 -88v-314h-49z"/>
<glyph glyph-name="s" horiz-adv-x="501" unicode="s" d="M245 -12q-60 0 -114 15t-84 36v52q31 -22 84 -40t113 -18q69 0 109.5 24.5t40.5 67.5q0 39 -38.5 58.5t-123.5 40.5q-39 10 -65.5 19t-52.5 24.5t-39 38.5t-13 54q0 60 48 95t137 35q105 0 173 -44v-50q-78 49 -170 49q-70 0 -104.5 -23.5t-34.5 -61.5q0 -18 9 -32 t19.5 -22.5t35 -17t37.5 -12t45 -11.5q36 -9 56 -14.5t48.5 -17.5t44 -25t27 -35t11.5 -49q0 -63 -56.5 -99.5t-142.5 -36.5z"/>
<glyph glyph-name="t" horiz-adv-x="423" unicode="t" d="M274 -12q-64 0 -94.5 37t-30.5 102v307h-121v44h121v153h49v-153h176v-44h-176v-294q0 -58 20.5 -81.5t68.5 -23.5q41 0 80 22v-47q-31 -22 -93 -22z"/>
<glyph glyph-name="u" d="M468 478h49v-478h-49v82q-32 -39 -84.5 -66.5t-117.5 -27.5q-92 0 -138.5 52t-46.5 147v291h49v-281q0 -163 151 -163q54 0 107 33t80 76v335z" unicode="u"/>
<glyph glyph-name="v" horiz-adv-x="557" unicode="v" d="M255 -4l-224 482h56l193 -416l191 416h53l-223 -482h-46z"/>
<glyph glyph-name="w" horiz-adv-x="814" unicode="w" d="M218 -4l-175 482h51l148 -406l144 408h42l145 -408l147 406h50l-175 -482h-42l-148 408l-144 -408h-43z"/>
<glyph glyph-name="x" horiz-adv-x="542" unicode="x" d="M36 0l209 254l-182 224h60l152 -186l152 186h58l-181 -222l208 -256h-61l-178 218l-179 -218h-58z"/>
<glyph glyph-name="y" horiz-adv-x="544" unicode="y" d="M103 -204q-48 0 -70 15v46q28 -16 64 -16q47 0 78.5 38.5t71.5 129.5l-221 469h55l190 -410l184 410h54l-241 -532q-34 -75 -72 -112.5t-93 -37.5z"/>
<glyph glyph-name="z" horiz-adv-x="494" unicode="z" d="M38 0v33l330 401h-306v44h377v-35l-329 -399h345v-44h-417z"/>
<glyph glyph-name="braceleft" horiz-adv-x="349" unicode="{" d="M114 250q39 -17 52 -52t13 -96v-176q0 -89 90 -89h41v-43h-49q-61 0 -95 33.5t-34 96.5v166q0 31 -1.5 49t-8.5 41t-23.5 35t-43.5 15v40q27 3 43.5 15t23.5 34.5t8.5 40.5t1.5 49v167q0 63 34 96.5t95 33.5h49v-43h-41q-90 0 -90 -89v-176q0 -61 -13 -96t-52 -52z"/>
<glyph glyph-name="bar" horiz-adv-x="297" unicode="|" d="M125 -111v871h46v-871h-46z"/>
<glyph glyph-name="braceright" horiz-adv-x="349" unicode="}" d="M235 250q-39 17 -52 52t-13 96v176q0 89 -90 89h-41v43h50q61 0 94.5 -34t33.5 -96v-167q0 -31 1.5 -49t8.5 -40.5t23.5 -34.5t43.5 -15v-40q-27 -3 -43.5 -15t-23.5 -35t-8.5 -41t-1.5 -49v-166q0 -62 -33.5 -96t-94.5 -34h-50v43h41q90 0 90 89v176q0 61 13 96t52 52z "/>
<glyph glyph-name="asciitilde" horiz-adv-x="568" unicode="~" d="M396 210q-41 0 -112.5 24.5t-111.5 24.5q-65 0 -102 -43v50q28 38 102 38q40 0 112 -24.5t112 -24.5q64 0 102 42v-50q-27 -37 -102 -37z"/>
<glyph glyph-name="nbspace" horiz-adv-x="267" unicode=" "/>
<glyph glyph-name="exclamdown" horiz-adv-x="267" unicode="¡" d="M93 441q0 17 11.5 28.5t28.5 11.5t28.5 -11.5t11.5 -28.5t-11.5 -28.5t-28.5 -11.5t-28.5 11.5t-11.5 28.5zM164 -200h-61l8 468h45z"/>
<glyph glyph-name="cent" horiz-adv-x="524" unicode="¢" d="M284 489v106h45v-106q65 -4 122 -36v-47q-67 39 -138 39q-89 0 -149 -59.5t-60 -147.5t60 -146.5t149 -58.5q83 0 147 45v-48q-54 -36 -131 -41v-106h-45v106q-101 8 -165.5 79t-64.5 171q0 99 64 170t166 80z"/>
<glyph glyph-name="sterling" horiz-adv-x="579" unicode="£" d="M65 0v46h24q46 0 46 79v178h-70v46h70v141q0 106 58 164t163 58q93 0 163 -46v-51q-63 49 -158 49q-86 0 -131.5 -46t-45.5 -134v-135h292v-46h-292v-204q0 -38 -23 -53h361v-46h-457z"/>
<glyph glyph-name="currency" horiz-adv-x="558" unicode="¤" d="M278 194q65 0 110 46t45 111t-45 111t-110 46t-110 -46t-45 -111t45 -111t110 -46zM89 132l-31 28l64 65q-43 56 -43 126q0 69 43 125l-64 65l31 29l64 -64q53 45 125 45q74 0 125 -45l65 64l31 -29l-66 -65q44 -53 44 -125t-43 -126l65 -65l-31 -28l-65 63 q-52 -44 -125 -44q-72 0 -125 45z"/>
<glyph glyph-name="yen" horiz-adv-x="612" unicode="¥" d="M280 0v148h-214v46h214v111h-214v46h195l-235 349h58l222 -330l222 330h57l-236 -349h197v-46h-216v-111h216v-46h-216v-148h-50z"/>
<glyph glyph-name="brokenbar" horiz-adv-x="297" unicode="¦" d="M125 407v353h46v-353h-46zM125 -111v353h46v-353h-46z"/>
<glyph glyph-name="section" horiz-adv-x="642" unicode="§" d="M319 162q28 -11 83 -27q54 11 88 41.5t34 72.5q0 29 -16 52.5t-49 41.5t-61 28.5t-75 25.5q-28 11 -83 27q-54 -11 -88 -41.5t-34 -72.5q0 -29 16 -52.5t49 -41.5t61 -28.5t75 -25.5zM453 111q87 -45 87 -119q0 -63 -57.5 -104t-161.5 -41q-120 0 -214 57v52 q100 -61 217 -61q77 0 121 26.5t44 72.5q0 12 -3 22t-10.5 19.5t-14 16.5t-21 14.5t-23.5 12t-29 12t-30.5 11t-34.5 11t-35 11.5q-110 37 -164.5 77t-54.5 105q0 101 120 142q-87 45 -87 119q0 63 57.5 104t161.5 41q120 0 214 -57v-52q-100 61 -217 61q-77 0 -121 -26.5 t-44 -72.5q0 -12 3 -22t10.5 -19.5t14 -16.5t21 -14.5t23.5 -12t29 -12t30.5 -11t34.5 -11t35 -11.5q110 -37 164.5 -77t54.5 -105q0 -101 -120 -142z"/>
<glyph glyph-name="dieresis" horiz-adv-x="522" unicode="¨" d="M320 645q0 16 11 27t27 11t27 -11t11 -27t-11 -27t-27 -11t-27 11t-11 27zM129 645q0 16 11 27t27 11t27 -11t11 -27t-11 -27t-27 -11t-27 11t-11 27z"/>
<glyph glyph-name="copyright" horiz-adv-x="873" unicode="©" d="M435 12q141 0 240 98.5t99 238.5q0 141 -98.5 240t-239.5 99t-239 -99t-98 -240t97.5 -239t238.5 -98zM435 -12q-150 0 -255.5 106t-105.5 256q0 149 106 255.5t256 106.5q151 0 256.5 -106t105.5 -257q0 -149 -106.5 -255t-256.5 -106zM458 158q-81 0 -136 55t-55 137 t55 137t136 55q57 0 101 -26v-44q-43 29 -101 29q-62 0 -103.5 -42.5t-41.5 -108.5t42 -108.5t105 -42.5t109 37v-45q-47 -33 -111 -33z"/>
<glyph glyph-name="ordfeminine" horiz-adv-x="526" unicode="ª" d="M360 427v56q-56 38 -128 38q-54 0 -85 -21.5t-31 -59.5q0 -41 31.5 -62.5t75.5 -21.5q43 0 79.5 21.5t57.5 49.5zM441 362q13 0 20 4v-37q-10 -5 -30 -5q-26 0 -45 15.5t-22 45.5q-62 -68 -152 -68q-58 0 -99 33t-41 88q0 57 44.5 88.5t105.5 31.5q73 0 138 -38v43 q0 103 -126 103q-70 0 -121 -38v42q54 35 129 35q71 0 116 -34t45 -102v-161q0 -46 38 -46z"/>
<glyph glyph-name="guillemotleft" horiz-adv-x="537" unicode="«" d="M430 42l-155 184v27l155 183h58l-167 -198l167 -196h-58zM207 42l-156 184v27l156 183h57l-167 -198l167 -196h-57z"/>
<glyph glyph-name="logicalnot" horiz-adv-x="556" unicode="¬" d="M441 156v176h-371v44h416v-220h-45z"/>
<glyph glyph-name="uni00AD" horiz-adv-x="477" unicode="­" d="M103 247v45h271v-45h-271z"/>
<glyph glyph-name="registered" horiz-adv-x="873" unicode="®" d="M435 12q141 0 240 98.5t99 238.5q0 141 -98.5 240t-239.5 99t-239 -99t-98 -240t97.5 -239t238.5 -98zM435 -12q-150 0 -255.5 106t-105.5 256q0 149 106 255.5t256 106.5q151 0 256.5 -106t105.5 -257q0 -149 -106.5 -255t-256.5 -106zM348 371h124q75 0 75 65 q0 32 -19.5 49t-55.5 17h-124v-131zM304 168v372h170q56 0 87 -28.5t31 -74.5q0 -39 -22 -65t-64 -34l121 -170h-51l-117 165h-111v-165h-44z"/>
<glyph glyph-name="macron" horiz-adv-x="519" unicode="¯" d="M142 624v40h233v-40h-233z"/>
<glyph glyph-name="degree" horiz-adv-x="439" unicode="°" d="M219 712q62 0 106.5 -44t44.5 -105t-44.5 -105t-106.5 -44q-61 0 -105 44t-44 105t44 105t105 44zM219 671q-44 0 -75.5 -31.5t-31.5 -76.5t31.5 -76.5t75.5 -31.5q45 0 76.5 31.5t31.5 76.5t-31.5 76.5t-76.5 31.5z"/>
<glyph glyph-name="plusminus" horiz-adv-x="609" unicode="±" d="M70 66v44h469v-44h-469zM282 189v171h-212v46h212v173h45v-173h212v-46h-212v-171h-45z"/>
<glyph glyph-name="twosuperior" horiz-adv-x="357" unicode="²" d="M46 322v34l127 119q39 36 56.5 61.5t17.5 55.5q0 32 -22.5 51t-59.5 19q-62 0 -111 -46v48q47 41 115 41q53 0 88.5 -30t35.5 -78q0 -37 -20 -69.5t-64 -74.5l-96 -92h194v-39h-261z"/>
<glyph glyph-name="threesuperior" horiz-adv-x="323" unicode="³" d="M139 317q-70 0 -113 29v43q49 -32 110 -32q41 0 72 23.5t31 62.5q0 37 -26.5 59t-72.5 22q-22 0 -45 -7v31l115 113h-168v39h229v-33l-112 -110q51 -3 88 -31.5t37 -83.5q0 -56 -41 -90.5t-104 -34.5z"/>
<glyph glyph-name="acute" horiz-adv-x="506" unicode="´" d="M191 577l96 130h65l-109 -130h-52z"/>
<glyph glyph-name="mu" horiz-adv-x="615" unicode="µ" d="M89 -200v678h49v-281q0 -163 151 -163q54 0 107 33t80 76v335h49v-478h-49v82q-32 -39 -84.5 -66.5t-117.5 -27.5q-88 0 -136 51v-239h-49z"/>
<glyph glyph-name="paragraph" horiz-adv-x="507" unicode="¶" d="M353 0v325h-87q-102 0 -158.5 51t-56.5 136q0 86 56 137t159 51h136v-700h-49z"/>
<glyph glyph-name="periodcentered" horiz-adv-x="224" unicode="·" d="M72 381q0 17 12 28.5t28 11.5t28 -11.5t12 -28.5t-12 -28.5t-28 -11.5t-28 11.5t-12 28.5z"/>
<glyph glyph-name="cedilla" horiz-adv-x="473" unicode="¸" d="M147 -128l91 133h43l-74 -133h-60z"/>
<glyph glyph-name="onesuperior" horiz-adv-x="235" unicode="¹" d="M129 322v330l-104 -62v46l107 64h43v-378h-46z"/>
<glyph glyph-name="ordmasculine" horiz-adv-x="469" unicode="º" d="M236 317q-88 0 -143.5 56.5t-55.5 136.5t55.5 137.5t143.5 57.5q87 0 141.5 -57t54.5 -138q0 -80 -54.5 -136.5t-141.5 -56.5zM236 358q64 0 107 44t43 109t-43 108.5t-107 43.5q-65 0 -108 -43.5t-43 -108.5t43 -109t108 -44z"/>
<glyph glyph-name="guillemotright" horiz-adv-x="538" unicode="»" d="M263 226l-156 -184h-57l167 197l-167 197h57l156 -183v-27zM487 226l-156 -184h-57l167 197l-167 197h57l156 -183v-27z"/>
<glyph glyph-name="onequarter" horiz-adv-x="732" unicode="¼" d="M454 140h149v178zM603 0v102h-201v34l203 242h43v-238h61v-38h-61v-102h-45zM129 322v330l-104 -62v46l107 64h43v-378h-46zM117 0l408 700h51l-408 -700h-51z"/>
<glyph glyph-name="onehalf" horiz-adv-x="798" unicode="½" d="M486 0v34l127 119q39 36 56.5 61.5t17.5 55.5q0 32 -22.5 51t-59.5 19q-62 0 -111 -46v48q47 41 115 41q53 0 88.5 -30t35.5 -78q0 -37 -20 -69.5t-64 -74.5l-96 -92h194v-39h-261zM129 322v330l-104 -62v46l107 64h43v-378h-46zM117 0l408 700h51l-408 -700h-51z"/>
<glyph glyph-name="threequarters" horiz-adv-x="785" unicode="¾" d="M139 317q-70 0 -113 29v43q49 -32 110 -32q41 0 72 23.5t31 62.5q0 37 -26.5 59t-72.5 22q-22 0 -45 -7v31l115 113h-168v39h229v-33l-112 -110q51 -3 88 -31.5t37 -83.5q0 -56 -41 -90.5t-104 -34.5zM506 140h149v178zM655 0v102h-201v34l203 242h43v-238h61v-38h-61 v-102h-45zM169 0l408 700h51l-408 -700h-51z"/>
<glyph glyph-name="questiondown" horiz-adv-x="468" unicode="¿" d="M221 441q0 17 11.5 28.5t28.5 11.5t28.5 -11.5t11.5 -28.5t-11.5 -28.5t-28.5 -11.5t-28.5 11.5t-11.5 28.5zM286 268v-126q-73 -16 -128 -58.5t-55 -105.5q0 -62 46 -99.5t117 -37.5q90 0 171 60v-49q-72 -56 -179 -56q-87 0 -146.5 49.5t-59.5 131.5q0 71 53 120.5 t133 73.5v97h48z"/>
<glyph glyph-name="Agrave" horiz-adv-x="744" unicode="À" d="M346 763l-110 130h66l96 -130h-52zM195 248h355l-177 391zM33 0l317 704h46l316 -704h-52l-92 204h-391l-92 -204h-52z"/>
<glyph glyph-name="Aacute" horiz-adv-x="744" unicode="Á" d="M351 763l96 130h65l-109 -130h-52zM195 248h355l-177 391zM33 0l317 704h46l316 -704h-52l-92 204h-391l-92 -204h-52z"/>
<glyph glyph-name="Acircumflex" horiz-adv-x="744" unicode="Â" d="M239 763l108 130h52l108 -130h-53l-81 98l-81 -98h-53zM195 248h355l-177 391zM33 0l317 704h46l316 -704h-52l-92 204h-391l-92 -204h-52z"/>
<glyph glyph-name="Atilde" horiz-adv-x="744" unicode="Ã" d="M444 775q-28 0 -75 31.5t-66 31.5q-36 0 -42 -57h-38q2 45 22.5 71.5t54.5 26.5q28 0 75.5 -30t66.5 -30q35 0 42 56h38q-2 -46 -22.5 -73t-55.5 -27zM195 248h355l-177 391zM33 0l317 704h46l316 -704h-52l-92 204h-391l-92 -204h-52z"/>
<glyph glyph-name="Adieresis" horiz-adv-x="744" unicode="Ä" d="M430 825q0 16 11 27t27 11t27 -11t11 -27t-11 -27t-27 -11t-27 11t-11 27zM239 825q0 16 11 27t27 11t27 -11t11 -27t-11 -27t-27 -11t-27 11t-11 27zM195 248h355l-177 391zM33 0l317 704h46l316 -704h-52l-92 204h-391l-92 -204h-52z"/>
<glyph glyph-name="Aring" horiz-adv-x="744" unicode="Å" d="M375 770q25 0 42 17t17 42q0 26 -17 43t-42 17q-26 0 -43.5 -17t-17.5 -43q0 -25 17.5 -42t43.5 -17zM375 736q-40 0 -67.5 27.5t-27.5 65.5q0 39 28 66.5t67 27.5q37 0 64.5 -28t27.5 -66t-27 -65.5t-65 -27.5zM195 248h355l-177 391zM33 0l317 704h46l316 -704h-52 l-92 204h-391l-92 -204h-52z"/>
<glyph glyph-name="AE" horiz-adv-x="1016" unicode="Æ" d="M487 654h-13l-259 -406h272v406zM445 700h508v-46h-416v-254h343v-47h-343v-307h431v-46h-481v204h-299l-129 -204h-56z"/>
<glyph glyph-name="Ccedilla" horiz-adv-x="693" unicode="Ç" d="M384 -128h-61l78 117q-141 9 -234 110t-93 251q0 157 101.5 259.5t251.5 102.5q115 0 200 -55v-53q-93 60 -199 60q-128 0 -215.5 -89.5t-87.5 -224.5t88 -225t216 -90q122 0 214 73v-55q-79 -59 -194 -64z"/>
<glyph glyph-name="Egrave" horiz-adv-x="637" unicode="È" d="M323 763l-110 130h66l96 -130h-52zM104 0v700h470v-46h-420v-254h347v-47h-347v-307h436v-46h-486z"/>
<glyph glyph-name="Eacute" horiz-adv-x="637" unicode="É" d="M289 763l96 130h65l-109 -130h-52zM104 0v700h470v-46h-420v-254h347v-47h-347v-307h436v-46h-486z"/>
<glyph glyph-name="Ecircumflex" horiz-adv-x="637" unicode="Ê" d="M214 763l108 130h52l108 -130h-53l-81 98l-81 -98h-53zM104 0v700h470v-46h-420v-254h347v-47h-347v-307h436v-46h-486z"/>
<glyph glyph-name="Edieresis" horiz-adv-x="637" unicode="Ë" d="M403 825q0 16 11 27t27 11t27 -11t11 -27t-11 -27t-27 -11t-27 11t-11 27zM212 825q0 16 11 27t27 11t27 -11t11 -27t-11 -27t-27 -11t-27 11t-11 27zM104 0v700h470v-46h-420v-254h347v-47h-347v-307h436v-46h-486z"/>
<glyph glyph-name="Igrave" horiz-adv-x="271" unicode="Ì" d="M108 763l-110 130h66l96 -130h-52zM111 0v700h50v-700h-50z"/>
<glyph glyph-name="Iacute" horiz-adv-x="271" unicode="Í" d="M106 763l96 130h65l-109 -130h-52zM111 0v700h50v-700h-50z"/>
<glyph glyph-name="Icircumflex" horiz-adv-x="271" unicode="Î" d="M2 763l108 130h52l108 -130h-53l-81 98l-81 -98h-53zM111 0v700h50v-700h-50z"/>
<glyph glyph-name="Idieresis" horiz-adv-x="270" unicode="Ï" d="M192 825q0 16 11 27t27 11t27 -11t11 -27t-11 -27t-27 -11t-27 11t-11 27zM1 825q0 16 11 27t27 11t27 -11t11 -27t-11 -27t-27 -11t-27 11t-11 27zM110 0v700h50v-700h-50z"/>
<glyph glyph-name="Eth" horiz-adv-x="819" unicode="Ð" d="M199 46h161q154 0 244 83t90 221t-90 221t-244 83h-161v-277h170v-46h-170v-285zM149 0v331h-116v46h116v323h219q168 0 272.5 -97t104.5 -253t-104.5 -253t-272.5 -97h-219z"/>
<glyph glyph-name="Ntilde" horiz-adv-x="775" unicode="Ñ" d="M459 775q-27 0 -75 31.5t-66 31.5q-36 0 -42 -57h-38q2 45 22.5 71.5t54.5 26.5q28 0 75.5 -30t66.5 -30q35 0 42 56h38q-2 -46 -22.5 -73t-55.5 -27zM104 0v700h44l472 -613v613h50v-700h-43l-473 614v-614h-50z"/>
<glyph glyph-name="Ograve" horiz-adv-x="846" unicode="Ò" d="M397 763l-110 130h66l96 -130h-52zM423 -12q-150 0 -249.5 103t-99.5 259q0 155 100 258.5t249 103.5q148 0 248 -103.5t100 -258.5t-100 -258.5t-248 -103.5zM423 35q125 0 211 90t86 225t-86 224.5t-211 89.5q-126 0 -212 -89.5t-86 -224.5t86.5 -225t211.5 -90z"/>
<glyph glyph-name="Oacute" horiz-adv-x="846" unicode="Ó" d="M377 763l96 130h65l-109 -130h-52zM423 -12q-150 0 -249.5 103t-99.5 259q0 155 100 258.5t249 103.5q148 0 248 -103.5t100 -258.5t-100 -258.5t-248 -103.5zM423 35q125 0 211 90t86 225t-86 224.5t-211 89.5q-126 0 -212 -89.5t-86 -224.5t86.5 -225t211.5 -90z"/>
<glyph glyph-name="Ocircumflex" horiz-adv-x="846" unicode="Ô" d="M289 763l108 130h52l108 -130h-53l-81 98l-81 -98h-53zM423 -12q-150 0 -249.5 103t-99.5 259q0 155 100 258.5t249 103.5q148 0 248 -103.5t100 -258.5t-100 -258.5t-248 -103.5zM423 35q125 0 211 90t86 225t-86 224.5t-211 89.5q-126 0 -212 -89.5t-86 -224.5 t86.5 -225t211.5 -90z"/>
<glyph glyph-name="Otilde" horiz-adv-x="846" unicode="Õ" d="M495 775q-27 0 -75 31.5t-66 31.5q-36 0 -42 -57h-38q2 45 22.5 71.5t54.5 26.5q28 0 75.5 -30t66.5 -30q35 0 42 56h38q-2 -46 -22.5 -73t-55.5 -27zM423 -12q-150 0 -249.5 103t-99.5 259q0 155 100 258.5t249 103.5q148 0 248 -103.5t100 -258.5t-100 -258.5 t-248 -103.5zM423 35q125 0 211 90t86 225t-86 224.5t-211 89.5q-126 0 -212 -89.5t-86 -224.5t86.5 -225t211.5 -90z"/>
<glyph glyph-name="Odieresis" horiz-adv-x="846" unicode="Ö" d="M481 825q0 16 11 27t27 11t27 -11t11 -27t-11 -27t-27 -11t-27 11t-11 27zM290 825q0 16 11 27t27 11t27 -11t11 -27t-11 -27t-27 -11t-27 11t-11 27zM423 -12q-150 0 -249.5 103t-99.5 259q0 155 100 258.5t249 103.5q148 0 248 -103.5t100 -258.5t-100 -258.5 t-248 -103.5zM423 35q125 0 211 90t86 225t-86 224.5t-211 89.5q-126 0 -212 -89.5t-86 -224.5t86.5 -225t211.5 -90z"/>
<glyph glyph-name="multiply" horiz-adv-x="523" unicode="×" d="M101 132l-31 32l160 159l-160 161l31 31l161 -159l159 159l32 -31l-161 -161l160 -158l-31 -33l-158 160z"/>
<glyph glyph-name="Oslash" horiz-adv-x="846" unicode="Ø" d="M423 35q125 0 211 90t86 225t-85 223l-394 -475q79 -63 182 -63zM125 350q0 -136 85 -224l395 475q-79 63 -182 63q-126 0 -212 -89.5t-86 -224.5zM423 -12q-120 0 -214 72l-50 -60h-53l72 87q-104 104 -104 263q0 155 100 258.5t249 103.5q119 0 214 -73l50 61h54 l-73 -89q103 -105 103 -261q0 -155 -100 -258.5t-248 -103.5z"/>
<glyph glyph-name="Ugrave" horiz-adv-x="747" unicode="Ù" d="M359 763l-110 130h66l96 -130h-52zM374 -12q-127 0 -204 81.5t-77 229.5v401h50v-401q0 -125 62 -194.5t169 -69.5t168.5 69t61.5 195v401h50v-401q0 -148 -77.5 -229.5t-202.5 -81.5z"/>
<glyph glyph-name="Uacute" horiz-adv-x="747" unicode="Ú" d="M342 763l96 130h65l-109 -130h-52zM374 -12q-127 0 -204 81.5t-77 229.5v401h50v-401q0 -125 62 -194.5t169 -69.5t168.5 69t61.5 195v401h50v-401q0 -148 -77.5 -229.5t-202.5 -81.5z"/>
<glyph glyph-name="Ucircumflex" horiz-adv-x="747" unicode="Û" d="M239 763l108 130h52l108 -130h-53l-81 98l-81 -98h-53zM374 -12q-127 0 -204 81.5t-77 229.5v401h50v-401q0 -125 62 -194.5t169 -69.5t168.5 69t61.5 195v401h50v-401q0 -148 -77.5 -229.5t-202.5 -81.5z"/>
<glyph glyph-name="Udieresis" horiz-adv-x="747" unicode="Ü" d="M431 825q0 16 11 27t27 11t27 -11t11 -27t-11 -27t-27 -11t-27 11t-11 27zM240 825q0 16 11 27t27 11t27 -11t11 -27t-11 -27t-27 -11t-27 11t-11 27zM374 -12q-127 0 -204 81.5t-77 229.5v401h50v-401q0 -125 62 -194.5t169 -69.5t168.5 69t61.5 195v401h50v-401 q0 -148 -77.5 -229.5t-202.5 -81.5z"/>
<glyph glyph-name="Yacute" horiz-adv-x="649" unicode="Ý" d="M288 763l96 130h65l-109 -130h-52zM298 0v324l-272 376h60l238 -329l240 329h57l-273 -375v-325h-50z"/>
<glyph glyph-name="Thorn" horiz-adv-x="665" unicode="Þ" d="M154 206h237q82 0 127 37.5t45 106.5q0 68 -44.5 105t-127.5 37h-237v-286zM104 0v700h50v-161h242q103 0 160 -52t57 -137q0 -86 -57 -138t-160 -52h-242v-160h-50z"/>
<glyph glyph-name="germandbls" horiz-adv-x="614" unicode="ß" d="M341 -12q-59 0 -94 15v48q37 -18 87 -18q76 0 125.5 43.5t49.5 116.5q0 78 -57 126.5t-151 48.5h-22v43h22q69 0 107.5 31t38.5 90q0 57 -41.5 93.5t-107.5 36.5q-71 0 -115.5 -45t-44.5 -121v-496h-49v496q0 96 57.5 153.5t151.5 57.5q88 0 143.5 -48.5t55.5 -122.5 q0 -111 -105 -143q71 -16 119 -68t48 -137q0 -91 -61.5 -145.5t-156.5 -54.5z"/>
<glyph glyph-name="agrave" horiz-adv-x="590" unicode="à" d="M289 577l-111 130h67l96 -130h-52zM232 -12q-75 0 -129.5 41.5t-54.5 115.5q0 70 56.5 113t141.5 43q101 0 185 -51v61q0 134 -168 134q-88 0 -161 -51v49q72 47 170 47q93 0 150.5 -43.5t57.5 -131.5v-210q0 -31 14 -49t37 -18q16 0 28 6v-40q-13 -8 -40 -8 q-33 0 -56.5 20.5t-26.5 61.5q-81 -90 -204 -90zM246 33q58 0 107 27.5t78 65.5v78q-80 54 -172 54q-75 0 -117.5 -30.5t-42.5 -81.5q0 -57 42.5 -85t104.5 -28z"/>
<glyph glyph-name="aacute" horiz-adv-x="590" unicode="á" d="M235 577l96 130h65l-109 -130h-52zM232 -12q-75 0 -129.5 41.5t-54.5 115.5q0 70 56.5 113t141.5 43q101 0 185 -51v61q0 134 -168 134q-88 0 -161 -51v49q72 47 170 47q93 0 150.5 -43.5t57.5 -131.5v-210q0 -31 14 -49t37 -18q16 0 28 6v-40q-13 -8 -40 -8 q-33 0 -56.5 20.5t-26.5 61.5q-81 -90 -204 -90zM246 33q58 0 107 27.5t78 65.5v78q-80 54 -172 54q-75 0 -117.5 -30.5t-42.5 -81.5q0 -57 42.5 -85t104.5 -28z"/>
<glyph glyph-name="acircumflex" horiz-adv-x="590" unicode="â" d="M143 576l109 131h52l108 -131h-53l-82 98l-81 -98h-53zM232 -12q-75 0 -129.5 41.5t-54.5 115.5q0 70 56.5 113t141.5 43q101 0 185 -51v61q0 134 -168 134q-88 0 -161 -51v49q72 47 170 47q93 0 150.5 -43.5t57.5 -131.5v-210q0 -31 14 -49t37 -18q16 0 28 6v-40 q-13 -8 -40 -8q-33 0 -56.5 20.5t-26.5 61.5q-81 -90 -204 -90zM246 33q58 0 107 27.5t78 65.5v78q-80 54 -172 54q-75 0 -117.5 -30.5t-42.5 -81.5q0 -57 42.5 -85t104.5 -28z"/>
<glyph glyph-name="atilde" horiz-adv-x="590" unicode="ã" d="M353 592q-29 0 -76 31t-67 31q-35 0 -41 -56h-38q2 45 23 72t55 27q29 0 76 -30.5t65 -30.5q35 0 41 56h38q-2 -46 -22 -73t-54 -27zM232 -12q-75 0 -129.5 41.5t-54.5 115.5q0 70 56.5 113t141.5 43q101 0 185 -51v61q0 134 -168 134q-88 0 -161 -51v49q72 47 170 47 q93 0 150.5 -43.5t57.5 -131.5v-210q0 -31 14 -49t37 -18q16 0 28 6v-40q-13 -8 -40 -8q-33 0 -56.5 20.5t-26.5 61.5q-81 -90 -204 -90zM246 33q58 0 107 27.5t78 65.5v78q-80 54 -172 54q-75 0 -117.5 -30.5t-42.5 -81.5q0 -57 42.5 -85t104.5 -28z"/>
<glyph glyph-name="adieresis" horiz-adv-x="590" unicode="ä" d="M344 645q0 16 11 27t27 11t27 -11t11 -27t-11 -27t-27 -11t-27 11t-11 27zM153 645q0 16 11 27t27 11t27 -11t11 -27t-11 -27t-27 -11t-27 11t-11 27zM232 -12q-75 0 -129.5 41.5t-54.5 115.5q0 70 56.5 113t141.5 43q101 0 185 -51v61q0 134 -168 134q-88 0 -161 -51v49 q72 47 170 47q93 0 150.5 -43.5t57.5 -131.5v-210q0 -31 14 -49t37 -18q16 0 28 6v-40q-13 -8 -40 -8q-33 0 -56.5 20.5t-26.5 61.5q-81 -90 -204 -90zM246 33q58 0 107 27.5t78 65.5v78q-80 54 -172 54q-75 0 -117.5 -30.5t-42.5 -81.5q0 -57 42.5 -85t104.5 -28z"/>
<glyph glyph-name="aring" horiz-adv-x="590" unicode="å" d="M283 586q25 0 42.5 17t17.5 42q0 26 -17.5 43t-42.5 17q-26 0 -43.5 -17t-17.5 -43q0 -25 17.5 -42t43.5 -17zM283 552q-40 0 -67.5 27.5t-27.5 65.5q0 39 28 66.5t67 27.5q38 0 65 -28t27 -66t-27 -65.5t-65 -27.5zM232 -12q-75 0 -129.5 41.5t-54.5 115.5 q0 70 56.5 113t141.5 43q101 0 185 -51v61q0 134 -168 134q-88 0 -161 -51v49q72 47 170 47q93 0 150.5 -43.5t57.5 -131.5v-210q0 -31 14 -49t37 -18q16 0 28 6v-40q-13 -8 -40 -8q-33 0 -56.5 20.5t-26.5 61.5q-81 -90 -204 -90zM246 33q58 0 107 27.5t78 65.5v78 q-80 54 -172 54q-75 0 -117.5 -30.5t-42.5 -81.5q0 -57 42.5 -85t104.5 -28z"/>
<glyph glyph-name="ae" horiz-adv-x="944" unicode="æ" d="M480 273h360q0 38 -15.5 75t-56.5 67t-101 30q-82 0 -132.5 -52.5t-54.5 -119.5zM248 33q118 0 200 109q-11 27 -15 61q-86 56 -174 56q-75 0 -117.5 -30.5t-42.5 -82.5q0 -57 42.5 -85t106.5 -28zM889 247v-16h-410q3 -88 63.5 -143t155.5 -55q89 0 154 45v-47 q-57 -43 -161 -43q-73 0 -132 31.5t-92 86.5q-33 -43 -93 -80.5t-138 -37.5t-133 41.5t-55 115.5q0 70 56.5 112.5t141.5 42.5q100 0 186 -51v61q0 135 -169 135q-88 0 -161 -51v49q73 47 170 47q72 0 124 -27.5t72 -83.5q31 52 82.5 81.5t117.5 29.5q48 0 87 -16 t63.5 -41.5t41 -58.5t23 -64.5t6.5 -62.5z"/>
<glyph glyph-name="ccedilla" horiz-adv-x="524" unicode="ç" d="M54 239q0 105 71.5 178t181.5 73q81 0 144 -37v-47q-67 39 -138 39q-89 0 -149 -59.5t-60 -147.5t60 -146.5t149 -58.5q83 0 147 45v-48q-53 -35 -122 -41l-65 -117h-60l79 116q-104 4 -171 76.5t-67 174.5z"/>
<glyph glyph-name="egrave" horiz-adv-x="568" unicode="è" d="M307 577l-111 130h67l96 -130h-52zM104 273h360q0 27 -9.5 55.5t-29 55.5t-54.5 44t-80 17q-82 0 -132.5 -52.5t-54.5 -119.5zM315 -12q-112 0 -186.5 70.5t-74.5 179.5q0 108 66.5 180t171.5 72q48 0 87 -16t63.5 -41.5t41 -58.5t23 -64.5t6.5 -62.5v-16h-410 q3 -88 63.5 -143t155.5 -55q89 0 154 45v-47q-57 -43 -161 -43z"/>
<glyph glyph-name="eacute" horiz-adv-x="568" unicode="é" d="M240 577l96 130h65l-109 -130h-52zM104 273h360q0 27 -9.5 55.5t-29 55.5t-54.5 44t-80 17q-82 0 -132.5 -52.5t-54.5 -119.5zM315 -12q-112 0 -186.5 70.5t-74.5 179.5q0 108 66.5 180t171.5 72q48 0 87 -16t63.5 -41.5t41 -58.5t23 -64.5t6.5 -62.5v-16h-410 q3 -88 63.5 -143t155.5 -55q89 0 154 45v-47q-57 -43 -161 -43z"/>
<glyph glyph-name="ecircumflex" horiz-adv-x="568" unicode="ê" d="M156 576l109 131h52l108 -131h-53l-82 98l-81 -98h-53zM104 273h360q0 27 -9.5 55.5t-29 55.5t-54.5 44t-80 17q-82 0 -132.5 -52.5t-54.5 -119.5zM315 -12q-112 0 -186.5 70.5t-74.5 179.5q0 108 66.5 180t171.5 72q48 0 87 -16t63.5 -41.5t41 -58.5t23 -64.5t6.5 -62.5 v-16h-410q3 -88 63.5 -143t155.5 -55q89 0 154 45v-47q-57 -43 -161 -43z"/>
<glyph glyph-name="edieresis" horiz-adv-x="568" unicode="ë" d="M355 645q0 16 11 27t27 11t27 -11t11 -27t-11 -27t-27 -11t-27 11t-11 27zM164 645q0 16 11 27t27 11t27 -11t11 -27t-11 -27t-27 -11t-27 11t-11 27zM104 273h360q0 27 -9.5 55.5t-29 55.5t-54.5 44t-80 17q-82 0 -132.5 -52.5t-54.5 -119.5zM315 -12 q-112 0 -186.5 70.5t-74.5 179.5q0 108 66.5 180t171.5 72q48 0 87 -16t63.5 -41.5t41 -58.5t23 -64.5t6.5 -62.5v-16h-410q3 -88 63.5 -143t155.5 -55q89 0 154 45v-47q-57 -43 -161 -43z"/>
<glyph glyph-name="igrave" horiz-adv-x="253" unicode="ì" d="M102 0v478h49v-478h-49zM102 577l-111 130h67l96 -130h-52z"/>
<glyph glyph-name="iacute" horiz-adv-x="253" unicode="í" d="M102 0v478h49v-478h-49zM101 577l96 130h65l-109 -130h-52z"/>
<glyph glyph-name="icircumflex" horiz-adv-x="253" unicode="î" d="M-8 576l109 131h52l108 -131h-53l-82 98l-81 -98h-53zM102 0v478h49v-478h-49z"/>
<glyph glyph-name="idieresis" horiz-adv-x="253" unicode="ï" d="M102 0v478h49v-478h-49zM184 645q0 16 11 27t27 11t27 -11t11 -27t-11 -27t-27 -11t-27 11t-11 27zM-7 645q0 16 11 27t27 11t27 -11t11 -27t-11 -27t-27 -11t-27 11t-11 27z"/>
<glyph glyph-name="eth" horiz-adv-x="595" unicode="ð" d="M297 33q83 0 138.5 55.5t55.5 138.5q0 82 -55.5 137t-138.5 55t-138 -55t-55 -137q0 -83 55.5 -138.5t137.5 -55.5zM297 -12q-108 0 -175.5 70.5t-67.5 167.5t65.5 166t167.5 69q70 0 119 -28l-113 161l-137 -55l-22 32l136 56l-54 73h55l41 -57l119 50l22 -32l-119 -50 q114 -163 145 -212q30 -46 46 -84t16 -86q0 -99 -68 -170t-176 -71z"/>
<glyph glyph-name="ntilde" horiz-adv-x="605" unicode="ñ" d="M380 592q-28 0 -76 31t-67 31q-35 0 -41 -56h-38q2 45 23 72t55 27q29 0 76 -30.5t65 -30.5q35 0 41 56h38q-2 -46 -22 -73t-54 -27zM138 0h-49v478h49v-82q32 39 84.5 66.5t117.5 27.5q92 0 138.5 -52t46.5 -147v-291h-49v281q0 50 -14 84t-38.5 50t-48 22.5t-50.5 6.5 q-55 0 -108 -33t-79 -76v-335z"/>
<glyph glyph-name="ograve" horiz-adv-x="617" unicode="ò" d="M303 577l-111 130h67l96 -130h-52zM308 -12q-112 0 -183 73.5t-71 176.5t71 177.5t183 74.5q113 0 184 -74.5t71 -177.5t-71 -176.5t-184 -73.5zM308 33q87 0 146 59.5t59 145.5q0 88 -59 147.5t-146 59.5t-145.5 -59.5t-58.5 -147.5q0 -87 58.5 -146t145.5 -59z"/>
<glyph glyph-name="oacute" horiz-adv-x="617" unicode="ó" d="M274 577l96 130h65l-109 -130h-52zM308 -12q-112 0 -183 73.5t-71 176.5t71 177.5t183 74.5q113 0 184 -74.5t71 -177.5t-71 -176.5t-184 -73.5zM308 33q87 0 146 59.5t59 145.5q0 88 -59 147.5t-146 59.5t-145.5 -59.5t-58.5 -147.5q0 -87 58.5 -146t145.5 -59z"/>
<glyph glyph-name="ocircumflex" horiz-adv-x="617" unicode="ô" d="M175 576l109 131h52l108 -131h-53l-82 98l-81 -98h-53zM308 -12q-112 0 -183 73.5t-71 176.5t71 177.5t183 74.5q113 0 184 -74.5t71 -177.5t-71 -176.5t-184 -73.5zM308 33q87 0 146 59.5t59 145.5q0 88 -59 147.5t-146 59.5t-145.5 -59.5t-58.5 -147.5q0 -87 58.5 -146 t145.5 -59z"/>
<glyph glyph-name="otilde" horiz-adv-x="617" unicode="õ" d="M382 592q-28 0 -76 31t-67 31q-35 0 -41 -56h-38q2 45 23 72t55 27q29 0 76 -30.5t65 -30.5q35 0 41 56h38q-2 -46 -22 -73t-54 -27zM308 -12q-112 0 -183 73.5t-71 176.5t71 177.5t183 74.5q113 0 184 -74.5t71 -177.5t-71 -176.5t-184 -73.5zM308 33q87 0 146 59.5 t59 145.5q0 88 -59 147.5t-146 59.5t-145.5 -59.5t-58.5 -147.5q0 -87 58.5 -146t145.5 -59z"/>
<glyph glyph-name="odieresis" horiz-adv-x="617" unicode="ö" d="M366 645q0 16 11 27t27 11t27 -11t11 -27t-11 -27t-27 -11t-27 11t-11 27zM175 645q0 16 11 27t27 11t27 -11t11 -27t-11 -27t-27 -11t-27 11t-11 27zM308 -12q-112 0 -183 73.5t-71 176.5t71 177.5t183 74.5q113 0 184 -74.5t71 -177.5t-71 -176.5t-184 -73.5zM308 33 q87 0 146 59.5t59 145.5q0 88 -59 147.5t-146 59.5t-145.5 -59.5t-58.5 -147.5q0 -87 58.5 -146t145.5 -59z"/>
<glyph glyph-name="divide" horiz-adv-x="581" unicode="÷" d="M246 128q0 18 13 31t31 13t31 -13t13 -31t-13 -31t-31 -13t-31 13t-13 31zM246 519q0 18 13 31t31 13t31 -13t13 -31t-13 -31t-31 -13t-31 13t-13 31zM70 301v45h441v-45h-441z"/>
<glyph glyph-name="oslash" horiz-adv-x="617" unicode="ø" d="M308 33q87 0 146 59.5t59 145.5q0 87 -58 145l-264 -315q53 -35 117 -35zM104 238q0 -85 57 -145l264 316q-54 36 -117 36q-87 0 -145.5 -59.5t-58.5 -147.5zM482 478h52l-47 -58q76 -74 76 -182q0 -103 -71 -176.5t-184 -73.5q-83 0 -147 43l-27 -31h-52l48 57 q-76 73 -76 181q0 103 71 177.5t183 74.5q82 0 147 -44z"/>
<glyph glyph-name="ugrave" d="M304 577l-111 130h67l96 -130h-52zM468 478h49v-478h-49v82q-32 -39 -84.5 -66.5t-117.5 -27.5q-92 0 -138.5 52t-46.5 147v291h49v-281q0 -163 151 -163q54 0 107 33t80 76v335z" unicode="ù"/>
<glyph glyph-name="uacute" d="M248 577l96 130h65l-109 -130h-52zM468 478h49v-478h-49v82q-32 -39 -84.5 -66.5t-117.5 -27.5q-92 0 -138.5 52t-46.5 147v291h49v-281q0 -163 151 -163q54 0 107 33t80 76v335z" unicode="ú"/>
<glyph glyph-name="ucircumflex" d="M164 576l109 131h52l108 -131h-53l-82 98l-81 -98h-53zM468 478h49v-478h-49v82q-32 -39 -84.5 -66.5t-117.5 -27.5q-92 0 -138.5 52t-46.5 147v291h49v-281q0 -163 151 -163q54 0 107 33t80 76v335z" unicode="û"/>
<glyph glyph-name="udieresis" d="M356 645q0 16 11 27t27 11t27 -11t11 -27t-11 -27t-27 -11t-27 11t-11 27zM165 645q0 16 11 27t27 11t27 -11t11 -27t-11 -27t-27 -11t-27 11t-11 27zM468 478h49v-478h-49v82q-32 -39 -84.5 -66.5t-117.5 -27.5q-92 0 -138.5 52t-46.5 147v291h49v-281q0 -163 151 -163 q54 0 107 33t80 76v335z" unicode="ü"/>
<glyph glyph-name="yacute" horiz-adv-x="544" unicode="ý" d="M231 577l96 130h65l-109 -130h-52zM103 -204q-48 0 -70 15v46q28 -16 64 -16q47 0 78.5 38.5t71.5 129.5l-221 469h55l190 -410l184 410h54l-241 -532q-34 -75 -72 -112.5t-93 -37.5z"/>
<glyph glyph-name="thorn" horiz-adv-x="632" unicode="þ" d="M324 445q-60 0 -111 -32.5t-75 -84.5v-177q24 -51 75 -84.5t111 -33.5q87 0 145 59.5t58 146.5t-58 146.5t-145 59.5zM334 490q107 0 175.5 -74t68.5 -177q0 -102 -68.5 -176.5t-175.5 -74.5q-126 0 -196 96v-284h-49v900h49v-305q69 95 196 95z"/>
<glyph glyph-name="ydieresis" horiz-adv-x="544" unicode="ÿ" d="M325 645q0 16 11 27t27 11t27 -11t11 -27t-11 -27t-27 -11t-27 11t-11 27zM134 645q0 16 11 27t27 11t27 -11t11 -27t-11 -27t-27 -11t-27 11t-11 27zM103 -204q-48 0 -70 15v46q28 -16 64 -16q47 0 78.5 38.5t71.5 129.5l-221 469h55l190 -410l184 410h54l-241 -532 q-34 -75 -72 -112.5t-93 -37.5z"/>
<glyph glyph-name="Amacron" horiz-adv-x="744" unicode="Ā" d="M256 807v42h236v-42h-236zM195 248h355l-177 391zM33 0l317 704h46l316 -704h-52l-92 204h-391l-92 -204h-52z"/>
<glyph glyph-name="amacron" horiz-adv-x="590" unicode="ā" d="M168 624v40h233v-40h-233zM232 -12q-75 0 -129.5 41.5t-54.5 115.5q0 70 56.5 113t141.5 43q101 0 185 -51v61q0 134 -168 134q-88 0 -161 -51v49q72 47 170 47q93 0 150.5 -43.5t57.5 -131.5v-210q0 -31 14 -49t37 -18q16 0 28 6v-40q-13 -8 -40 -8q-33 0 -56.5 20.5 t-26.5 61.5q-81 -90 -204 -90zM246 33q58 0 107 27.5t78 65.5v78q-80 54 -172 54q-75 0 -117.5 -30.5t-42.5 -81.5q0 -57 42.5 -85t104.5 -28z"/>
<glyph glyph-name="Abreve" horiz-adv-x="744" unicode="Ă" d="M373 762q-53 0 -90.5 37.5t-39.5 93.5h43q1 -39 25.5 -65t61.5 -26t62 26t26 65h41q0 -56 -37.5 -93.5t-91.5 -37.5zM195 248h355l-177 391zM33 0l317 704h46l316 -704h-52l-92 204h-391l-92 -204h-52z"/>
<glyph glyph-name="abreve" horiz-adv-x="590" unicode="ă" d="M281 577q-54 0 -92 37t-38 93h42q1 -38 25.5 -64t62.5 -26q37 0 61.5 26t25.5 64h42q0 -56 -38.5 -93t-90.5 -37zM232 -12q-75 0 -129.5 41.5t-54.5 115.5q0 70 56.5 113t141.5 43q101 0 185 -51v61q0 134 -168 134q-88 0 -161 -51v49q72 47 170 47q93 0 150.5 -43.5 t57.5 -131.5v-210q0 -31 14 -49t37 -18q16 0 28 6v-40q-13 -8 -40 -8q-33 0 -56.5 20.5t-26.5 61.5q-81 -90 -204 -90zM246 33q58 0 107 27.5t78 65.5v78q-80 54 -172 54q-75 0 -117.5 -30.5t-42.5 -81.5q0 -57 42.5 -85t104.5 -28z"/>
<glyph glyph-name="Aogonek" horiz-adv-x="744" unicode="Ą" d="M195 248h355l-177 391zM740 -193q-50 0 -78.5 28t-28.5 71q0 51 38 94h-11l-92 204h-391l-92 -204h-52l317 704h46l316 -704q-39 -43 -39 -88q0 -32 21 -50t54 -18q22 0 40 5v-36q-22 -6 -48 -6z"/>
<glyph glyph-name="aogonek" horiz-adv-x="589" unicode="ą" d="M246 33q58 0 107 27.5t78 65.5v78q-80 54 -172 54q-75 0 -117.5 -30.5t-42.5 -81.5q0 -57 42.5 -85t104.5 -28zM587 -189q-50 0 -78.5 28t-28.5 71q0 46 31 86q-31 2 -52 22.5t-23 59.5q-81 -90 -204 -90q-75 0 -129.5 41.5t-54.5 115.5q0 70 56.5 113t141.5 43 q101 0 185 -51v61q0 134 -168 134q-88 0 -161 -51v49q72 47 170 47q93 0 150.5 -43.5t57.5 -131.5v-210q0 -31 14 -49t37 -18q16 0 28 6v-40q-39 -43 -39 -88q0 -32 21 -50t54 -18q23 0 40 5v-36q-22 -6 -48 -6z"/>
<glyph glyph-name="Cacute" horiz-adv-x="693" unicode="Ć" d="M368 763l96 130h65l-109 -130h-52zM427 -12q-150 0 -251.5 102.5t-101.5 259.5t101.5 259.5t251.5 102.5q115 0 200 -55v-53q-93 60 -199 60q-128 0 -215.5 -89.5t-87.5 -224.5t88 -225t216 -90q122 0 214 73v-55q-88 -65 -216 -65z"/>
<glyph glyph-name="cacute" horiz-adv-x="522" unicode="ć" d="M248 577l96 130h65l-109 -130h-52zM306 -12q-109 0 -180.5 73t-71.5 178t71.5 178t181.5 73q81 0 144 -37v-47q-67 39 -138 39q-89 0 -149 -59.5t-60 -147.5t60 -146.5t149 -58.5q83 0 147 45v-48q-64 -42 -154 -42z"/>
<glyph glyph-name="Ccircumflex" horiz-adv-x="693" unicode="Ĉ" d="M273 763l108 130h52l108 -130h-53l-81 98l-81 -98h-53zM427 -12q-150 0 -251.5 102.5t-101.5 259.5t101.5 259.5t251.5 102.5q115 0 200 -55v-53q-93 60 -199 60q-128 0 -215.5 -89.5t-87.5 -224.5t88 -225t216 -90q122 0 214 73v-55q-88 -65 -216 -65z"/>
<glyph glyph-name="ccircumflex" horiz-adv-x="524" unicode="ĉ" d="M152 576l109 131h52l108 -131h-53l-82 98l-81 -98h-53zM306 -12q-109 0 -180.5 73t-71.5 178t71.5 178t181.5 73q81 0 144 -37v-47q-67 39 -138 39q-89 0 -149 -59.5t-60 -147.5t60 -146.5t149 -58.5q83 0 147 45v-48q-64 -42 -154 -42z"/>
<glyph glyph-name="Cdotaccent" horiz-adv-x="693" unicode="Ċ" d="M381 825q0 17 11.5 28.5t28.5 11.5t28.5 -11.5t11.5 -28.5t-11.5 -28.5t-28.5 -11.5t-28.5 11.5t-11.5 28.5zM427 -12q-150 0 -251.5 102.5t-101.5 259.5t101.5 259.5t251.5 102.5q115 0 200 -55v-53q-93 60 -199 60q-128 0 -215.5 -89.5t-87.5 -224.5t88 -225t216 -90 q122 0 214 73v-55q-88 -65 -216 -65z"/>
<glyph glyph-name="cdotaccent" horiz-adv-x="524" unicode="ċ" d="M265 645q0 17 11.5 28.5t28.5 11.5t28.5 -11.5t11.5 -28.5t-11.5 -28.5t-28.5 -11.5t-28.5 11.5t-11.5 28.5zM306 -12q-109 0 -180.5 73t-71.5 178t71.5 178t181.5 73q81 0 144 -37v-47q-67 39 -138 39q-89 0 -149 -59.5t-60 -147.5t60 -146.5t149 -58.5q83 0 147 45v-48 q-64 -42 -154 -42z"/>
<glyph glyph-name="Ccaron" horiz-adv-x="693" unicode="Č" d="M392 763l-108 130h52l81 -97l82 97h53l-109 -130h-51zM427 -12q-150 0 -251.5 102.5t-101.5 259.5t101.5 259.5t251.5 102.5q115 0 200 -55v-53q-93 60 -199 60q-128 0 -215.5 -89.5t-87.5 -224.5t88 -225t216 -90q122 0 214 73v-55q-88 -65 -216 -65z"/>
<glyph glyph-name="ccaron" horiz-adv-x="522" unicode="č" d="M273 577l-107 130h52l81 -98l82 98h52l-108 -130h-52zM306 -12q-109 0 -180.5 73t-71.5 178t71.5 178t181.5 73q81 0 144 -37v-47q-67 39 -138 39q-89 0 -149 -59.5t-60 -147.5t60 -146.5t149 -58.5q83 0 147 45v-48q-64 -42 -154 -42z"/>
<glyph glyph-name="Dcaron" horiz-adv-x="775" unicode="Ď" d="M314 763l-108 130h52l81 -97l82 97h53l-109 -130h-51zM154 46h161q155 0 244.5 83t89.5 221t-89.5 221t-244.5 83h-161v-608zM104 0v700h219q168 0 272.5 -97t104.5 -253t-104.5 -253t-272.5 -97h-219z"/>
<glyph glyph-name="dcaron" horiz-adv-x="736" unicode="ď" d="M630 530l55 169h54l-67 -169h-42zM307 33q60 0 111 32.5t75 84.5v177q-25 51 -75.5 84.5t-110.5 33.5q-87 0 -145 -59.5t-58 -147.5q0 -87 58 -146t145 -59zM297 -12q-107 0 -175 74t-68 176q0 103 68 177.5t175 74.5q126 0 196 -96v306h49v-700h-49v83q-69 -95 -196 -95 z"/>
<glyph glyph-name="Dcroat" horiz-adv-x="819" unicode="Đ" d="M199 46h161q154 0 244 83t90 221t-90 221t-244 83h-161v-277h170v-46h-170v-285zM149 0v331h-116v46h116v323h219q168 0 272.5 -97t104.5 -253t-104.5 -253t-272.5 -97h-219z"/>
<glyph glyph-name="dcroat" horiz-adv-x="631" unicode="đ" d="M307 33q60 0 111 32.5t75 84.5v177q-25 51 -75.5 84.5t-110.5 33.5q-87 0 -145 -59.5t-58 -147.5q0 -87 58 -146t145 -59zM297 -12q-107 0 -175 74t-68 176q0 103 68 177.5t175 74.5q126 0 196 -96v161h-129v44h129v101h49v-101h102v-44h-102v-555h-49v83 q-69 -95 -196 -95z"/>
<glyph glyph-name="Emacron" horiz-adv-x="637" unicode="Ē" d="M229 807v42h236v-42h-236zM104 0v700h470v-46h-420v-254h347v-47h-347v-307h436v-46h-486z"/>
<glyph glyph-name="emacron" horiz-adv-x="568" unicode="ē" d="M174 624v40h233v-40h-233zM104 273h360q0 27 -9.5 55.5t-29 55.5t-54.5 44t-80 17q-82 0 -132.5 -52.5t-54.5 -119.5zM315 -12q-112 0 -186.5 70.5t-74.5 179.5q0 108 66.5 180t171.5 72q48 0 87 -16t63.5 -41.5t41 -58.5t23 -64.5t6.5 -62.5v-16h-410q3 -88 63.5 -143 t155.5 -55q89 0 154 45v-47q-57 -43 -161 -43z"/>
<glyph glyph-name="Ebreve" horiz-adv-x="637" unicode="Ĕ" d="M347 762q-53 0 -90.5 37.5t-39.5 93.5h43q1 -39 25.5 -65t61.5 -26t62 26t26 65h41q0 -56 -37.5 -93.5t-91.5 -37.5zM104 0v700h470v-46h-420v-254h347v-47h-347v-307h436v-46h-486z"/>
<glyph glyph-name="ebreve" horiz-adv-x="568" unicode="ĕ" d="M291 577q-54 0 -92 37t-38 93h42q1 -38 25.5 -64t62.5 -26q37 0 61.5 26t25.5 64h42q0 -56 -38.5 -93t-90.5 -37zM104 273h360q0 27 -9.5 55.5t-29 55.5t-54.5 44t-80 17q-82 0 -132.5 -52.5t-54.5 -119.5zM315 -12q-112 0 -186.5 70.5t-74.5 179.5q0 108 66.5 180 t171.5 72q48 0 87 -16t63.5 -41.5t41 -58.5t23 -64.5t6.5 -62.5v-16h-410q3 -88 63.5 -143t155.5 -55q89 0 154 45v-47q-57 -43 -161 -43z"/>
<glyph glyph-name="Edotaccent" horiz-adv-x="637" unicode="Ė" d="M306 825q0 17 12 28.5t28 11.5t28 -11.5t12 -28.5t-12 -28.5t-28 -11.5t-28 11.5t-12 28.5zM104 0v700h470v-46h-420v-254h347v-47h-347v-307h436v-46h-486z"/>
<glyph glyph-name="edotaccent" horiz-adv-x="568" unicode="ė" d="M245 645q0 17 11.5 28.5t28.5 11.5t28.5 -11.5t11.5 -28.5t-11.5 -28.5t-28.5 -11.5t-28.5 11.5t-11.5 28.5zM104 273h360q0 27 -9.5 55.5t-29 55.5t-54.5 44t-80 17q-82 0 -132.5 -52.5t-54.5 -119.5zM315 -12q-112 0 -186.5 70.5t-74.5 179.5q0 108 66.5 180t171.5 72 q48 0 87 -16t63.5 -41.5t41 -58.5t23 -64.5t6.5 -62.5v-16h-410q3 -88 63.5 -143t155.5 -55q89 0 154 45v-47q-57 -43 -161 -43z"/>
<glyph glyph-name="Eogonek" horiz-adv-x="639" unicode="Ę" d="M618 -193q-50 0 -78.5 28t-28.5 71q0 51 38 94h-445v700h470v-46h-420v-254h347v-47h-347v-307h436v-46q-39 -43 -39 -88q0 -32 21 -50t54 -18q22 0 40 5v-36q-22 -6 -48 -6z"/>
<glyph glyph-name="eogonek" horiz-adv-x="568" unicode="ę" d="M104 273h360q0 27 -9.5 55.5t-29 55.5t-54.5 44t-80 17q-82 0 -132.5 -52.5t-54.5 -119.5zM504 -162q-50 0 -78.5 28t-28.5 71q0 33 17 65q-51 -14 -99 -14q-112 0 -186.5 70.5t-74.5 179.5q0 108 66.5 180t171.5 72q48 0 87 -16t63.5 -41.5t41 -58.5t23 -64.5t6.5 -62.5 v-16h-410q3 -88 63.5 -143t155.5 -55q89 0 154 45v-47q-39 -43 -39 -88q0 -32 21 -50t54 -18q22 0 40 5v-36q-22 -6 -48 -6z"/>
<glyph glyph-name="Ecaron" horiz-adv-x="637" unicode="Ě" d="M320 763l-108 130h52l81 -97l82 97h53l-109 -130h-51zM104 0v700h470v-46h-420v-254h347v-47h-347v-307h436v-46h-486z"/>
<glyph glyph-name="ecaron" horiz-adv-x="568" unicode="ě" d="M263 577l-107 130h52l81 -98l82 98h52l-108 -130h-52zM104 273h360q0 27 -9.5 55.5t-29 55.5t-54.5 44t-80 17q-82 0 -132.5 -52.5t-54.5 -119.5zM315 -12q-112 0 -186.5 70.5t-74.5 179.5q0 108 66.5 180t171.5 72q48 0 87 -16t63.5 -41.5t41 -58.5t23 -64.5t6.5 -62.5 v-16h-410q3 -88 63.5 -143t155.5 -55q89 0 154 45v-47q-57 -43 -161 -43z"/>
<glyph glyph-name="Gcircumflex" horiz-adv-x="782" unicode="Ĝ" d="M272 763l108 130h52l108 -130h-53l-81 98l-81 -98h-53zM426 -12q-149 0 -250.5 102.5t-101.5 259.5t101 259.5t251 102.5q135 0 228 -72v-53q-98 77 -224 77q-130 0 -217.5 -89t-87.5 -226q0 -136 87 -225t214 -89q140 0 218 82v284h50v-303q-101 -110 -268 -110z"/>
<glyph glyph-name="gcircumflex" horiz-adv-x="631" unicode="ĝ" d="M175 576l109 131h52l108 -131h-53l-82 98l-81 -98h-53zM493 153v176q-24 52 -74 84t-111 32q-88 0 -146 -58.5t-58 -144.5q0 -88 58 -146t146 -58q61 0 111 31.5t74 83.5zM493 478h49v-456q0 -109 -71.5 -167.5t-182.5 -58.5q-102 0 -184 45v49q81 -49 181 -49 q94 0 151 45t57 136v64q-68 -93 -195 -93q-107 0 -175.5 73t-68.5 176q0 102 68.5 175t175.5 73q127 0 195 -94v82z"/>
<glyph glyph-name="Gbreve" horiz-adv-x="782" unicode="Ğ" d="M420 764q-53 0 -90.5 37.5t-39.5 93.5h43q1 -39 25.5 -65t61.5 -26t62 26t26 65h41q0 -56 -37.5 -93.5t-91.5 -37.5zM426 -12q-149 0 -250.5 102.5t-101.5 259.5t101 259.5t251 102.5q135 0 228 -72v-53q-98 77 -224 77q-130 0 -217.5 -89t-87.5 -226q0 -136 87 -225 t214 -89q140 0 218 82v284h50v-303q-101 -110 -268 -110z"/>
<glyph glyph-name="gbreve" horiz-adv-x="631" unicode="ğ" d="M305 577q-54 0 -92 37t-38 93h42q1 -38 25.5 -64t62.5 -26q37 0 61.5 26t25.5 64h42q0 -56 -38.5 -93t-90.5 -37zM493 153v176q-24 52 -74 84t-111 32q-88 0 -146 -58.5t-58 -144.5q0 -88 58 -146t146 -58q61 0 111 31.5t74 83.5zM493 478h49v-456q0 -109 -71.5 -167.5 t-182.5 -58.5q-102 0 -184 45v49q81 -49 181 -49q94 0 151 45t57 136v64q-68 -93 -195 -93q-107 0 -175.5 73t-68.5 176q0 102 68.5 175t175.5 73q127 0 195 -94v82z"/>
<glyph glyph-name="Gdotaccent" horiz-adv-x="782" unicode="Ġ" d="M383 825q0 17 11.5 28.5t28.5 11.5t28.5 -11.5t11.5 -28.5t-11.5 -28.5t-28.5 -11.5t-28.5 11.5t-11.5 28.5zM426 -12q-149 0 -250.5 102.5t-101.5 259.5t101 259.5t251 102.5q135 0 228 -72v-53q-98 77 -224 77q-130 0 -217.5 -89t-87.5 -226q0 -136 87 -225t214 -89 q140 0 218 82v284h50v-303q-101 -110 -268 -110z"/>
<glyph glyph-name="gdotaccent" horiz-adv-x="631" unicode="ġ" d="M268 645q0 17 12 28.5t28 11.5t28 -11.5t12 -28.5t-12 -28.5t-28 -11.5t-28 11.5t-12 28.5zM493 153v176q-24 52 -74 84t-111 32q-88 0 -146 -58.5t-58 -144.5q0 -88 58 -146t146 -58q61 0 111 31.5t74 83.5zM493 478h49v-456q0 -109 -71.5 -167.5t-182.5 -58.5 q-102 0 -184 45v49q81 -49 181 -49q94 0 151 45t57 136v64q-68 -93 -195 -93q-107 0 -175.5 73t-68.5 176q0 102 68.5 175t175.5 73q127 0 195 -94v82z"/>
<glyph glyph-name="uni0122" horiz-adv-x="782" unicode="Ģ" d="M355 -220l55 169h54l-67 -169h-42zM426 -12q-149 0 -250.5 102.5t-101.5 259.5t101 259.5t251 102.5q135 0 228 -72v-53q-98 77 -224 77q-130 0 -217.5 -89t-87.5 -226q0 -136 87 -225t214 -89q140 0 218 82v284h50v-303q-101 -110 -268 -110z"/>
<glyph glyph-name="uni0123" horiz-adv-x="631" unicode="ģ" d="M371 722l-55 -169h-54l67 169h42zM493 153v176q-24 52 -74 84t-111 32q-88 0 -146 -58.5t-58 -144.5q0 -88 58 -146t146 -58q61 0 111 31.5t74 83.5zM493 478h49v-456q0 -109 -71.5 -167.5t-182.5 -58.5q-102 0 -184 45v49q81 -49 181 -49q94 0 151 45t57 136v64 q-68 -93 -195 -93q-107 0 -175.5 73t-68.5 176q0 102 68.5 175t175.5 73q127 0 195 -94v82z"/>
<glyph glyph-name="Hcircumflex" horiz-adv-x="760" unicode="Ĥ" d="M245 763l108 130h52l108 -130h-53l-81 98l-81 -98h-53zM104 0v700h50v-300h451v300h50v-700h-50v353h-451v-353h-50z"/>
<glyph glyph-name="hcircumflex" horiz-adv-x="603" unicode="ĥ" d="M-21 763l108 130h52l108 -130h-53l-81 98l-81 -98h-53zM136 0h-49v700h49v-304q32 39 84.5 66.5t117.5 27.5q92 0 138.5 -52t46.5 -147v-291h-49v281q0 50 -14 84t-38.5 50t-48 22.5t-50.5 6.5q-55 0 -108 -33t-79 -76v-335z"/>
<glyph glyph-name="Hbar" horiz-adv-x="842" unicode="Ħ" d="M195 400h452v146h-452v-146zM145 0v546h-94v40h94v114h50v-114h452v114h50v-114h94v-40h-94v-546h-50v353h-452v-353h-50z"/>
<glyph glyph-name="hbar" horiz-adv-x="633" unicode="ħ" d="M166 0h-48v547h-102v44h102v109h48v-109h137v-44h-137v-208q32 38 85 65.5t117 27.5q92 0 138.5 -52t46.5 -147v-233h-49v223q0 164 -151 164q-54 0 -107.5 -33.5t-79.5 -76.5v-277z"/>
<glyph glyph-name="Itilde" horiz-adv-x="271" unicode="Ĩ" d="M208 775q-28 0 -75 31.5t-66 31.5q-36 0 -42 -57h-38q2 45 22.5 71.5t54.5 26.5q28 0 75.5 -30t66.5 -30q35 0 42 56h38q-2 -46 -22.5 -73t-55.5 -27zM111 0v700h50v-700h-50z"/>
<glyph glyph-name="itilde" horiz-adv-x="245" unicode="ĩ" d="M102 0v478h49v-478h-49zM197 592q-29 0 -76 31t-67 31q-35 0 -41 -56h-38q2 45 23 72t55 27q29 0 76 -30.5t65 -30.5q35 0 41 56h38q-2 -46 -22 -73t-54 -27z"/>
<glyph glyph-name="Imacron" horiz-adv-x="271" unicode="Ī" d="M19 807v42h236v-42h-236zM111 0v700h50v-700h-50z"/>
<glyph glyph-name="imacron" horiz-adv-x="245" unicode="ī" d="M102 0v478h49v-478h-49zM7 624v40h233v-40h-233z"/>
<glyph glyph-name="Ibreve" horiz-adv-x="271" unicode="Ĭ" d="M136 762q-53 0 -90.5 37.5t-39.5 93.5h43q1 -39 25.5 -65t61.5 -26t62 26t26 65h41q0 -56 -37.5 -93.5t-91.5 -37.5zM111 0v700h50v-700h-50z"/>
<glyph glyph-name="ibreve" horiz-adv-x="245" unicode="ĭ" d="M102 0v478h49v-478h-49zM124 577q-54 0 -92 37t-38 93h42q1 -38 25.5 -64t62.5 -26q37 0 61.5 26t25.5 64h42q0 -56 -38.5 -93t-90.5 -37z"/>
<glyph glyph-name="Iogonek" horiz-adv-x="271" unicode="Į" d="M189 -193q-50 0 -78.5 28t-28.5 71q0 51 38 94h-9v700h50v-700q-39 -43 -39 -88q0 -32 21 -50t54 -18q23 0 40 5v-36q-22 -6 -48 -6z"/>
<glyph glyph-name="iogonek" horiz-adv-x="255" unicode="į" d="M127 607q-18 0 -29 11t-11 28t11 28.5t29 11.5q17 0 28.5 -12t11.5 -28q0 -17 -11.5 -28t-28.5 -11zM180 -193q-50 0 -78.5 28t-28.5 71q0 51 38 94h-8v478h49v-478q-39 -43 -39 -88q0 -32 21 -50t54 -18q22 0 40 5v-36q-22 -6 -48 -6z"/>
<glyph glyph-name="Idotaccent" horiz-adv-x="271" unicode="İ" d="M95 825q0 17 11.5 28.5t28.5 11.5t28.5 -11.5t11.5 -28.5t-11.5 -28.5t-28.5 -11.5t-28.5 11.5t-11.5 28.5zM111 0v700h50v-700h-50z"/>
<glyph glyph-name="dotlessi" horiz-adv-x="253" unicode="ı" d="M102 0v478h49v-478h-49z"/>
<glyph glyph-name="IJ" horiz-adv-x="601" unicode="Ĳ" d="M278 -12q-99 0 -167 48v54q63 -55 161 -55q183 0 183 184v481h50v-488q0 -112 -59.5 -168t-167.5 -56zM111 247v453h50v-453h-50z"/>
<glyph glyph-name="Jcircumflex" horiz-adv-x="502" unicode="Ĵ" d="M247 763l108 130h52l108 -130h-53l-81 98l-81 -98h-53zM193 -12q-93 0 -158 47v54q62 -54 150 -54q172 0 172 181v484h50v-492q0 -110 -56 -165t-158 -55z"/>
<glyph glyph-name="jcircumflex" horiz-adv-x="255" unicode="ĵ" d="M-6 576l108 131h53l107 -131h-53l-81 98l-81 -98h-53zM23 -204q-48 0 -78 18v46q33 -19 69 -19q89 0 89 102v535h49v-543q0 -74 -36.5 -106.5t-92.5 -32.5z"/>
<glyph glyph-name="uni0136" horiz-adv-x="641" unicode="Ķ" d="M281 -220l55 169h54l-67 -169h-42zM104 0v700h50v-308l352 308h69l-365 -321l421 -379h-75l-402 363v-363h-50z"/>
<glyph glyph-name="uni0137" horiz-adv-x="518" unicode="ķ" d="M205 -220l55 169h54l-67 -169h-42zM88 0v700h49v-423l248 201h71l-267 -216l303 -262h-73l-282 243v-243h-49z"/>
<glyph glyph-name="kgreenlandic" horiz-adv-x="519" unicode="ĸ" d="M89 0v478h49v-201l248 201h71l-267 -216l303 -262h-73l-282 243v-243h-49z"/>
<glyph glyph-name="Lacute" horiz-adv-x="593" unicode="Ĺ" d="M105 763l96 130h65l-109 -130h-52zM104 0v700h50v-654h405v-46h-455z"/>
<glyph glyph-name="lacute" horiz-adv-x="277" unicode="ĺ" d="M89 763l96 130h65l-109 -130h-52zM189 -12q-43 0 -73.5 25.5t-30.5 86.5v600h49v-589q0 -76 70 -76q27 0 50 14v-47q-25 -14 -65 -14z"/>
<glyph glyph-name="uni013B" horiz-adv-x="593" unicode="Ļ" d="M267 -220l55 169h54l-67 -169h-42zM104 0v700h50v-654h405v-46h-455z"/>
<glyph glyph-name="lcommaaccent" horiz-adv-x="277" unicode="ļ" d="M103 -220l55 169h54l-67 -169h-42zM189 -12q-43 0 -73.5 25.5t-30.5 86.5v600h49v-589q0 -76 70 -76q27 0 50 14v-47q-25 -14 -65 -14z"/>
<glyph glyph-name="Lcaron" horiz-adv-x="618" unicode="Ľ" d="M456 530l55 169h54l-67 -169h-42zM104 0v700h50v-654h405v-46h-455z"/>
<glyph glyph-name="lcaron" horiz-adv-x="349" unicode="ľ" d="M244 530l55 169h54l-67 -169h-42zM193 -12q-43 0 -73.5 25.5t-30.5 86.5v600h49v-589q0 -76 70 -76q27 0 50 14v-47q-25 -14 -65 -14z"/>
<glyph glyph-name="Ldot" horiz-adv-x="593" unicode="Ŀ" d="M479 380q0 16 11.5 28t28.5 12t28.5 -12t11.5 -28t-11.5 -28t-28.5 -12t-28.5 12t-11.5 28zM104 0v700h50v-654h405v-46h-455z"/>
<glyph glyph-name="ldot" horiz-adv-x="371" unicode="ŀ" d="M243 380q0 16 11.5 28t28.5 12t28.5 -12t11.5 -28t-11.5 -28t-28.5 -12t-28.5 12t-11.5 28zM197 -12q-43 0 -73.5 25.5t-30.5 86.5v600h49v-589q0 -76 70 -76q27 0 50 14v-47q-25 -14 -65 -14z"/>
<glyph glyph-name="Lslash" horiz-adv-x="601" unicode="Ł" d="M112 0v341l-95 -56v50l95 57v308h50v-278l159 96v-51l-159 -96v-325h405v-46h-455z"/>
<glyph glyph-name="lslash" horiz-adv-x="379" unicode="ł" d="M255 -12q-43 0 -73.5 25.5t-30.5 86.5v246l-101 -61v51l101 61v303h49v-274l101 62v-51l-101 -61v-265q0 -76 70 -76q27 0 50 14v-47q-25 -14 -65 -14z"/>
<glyph glyph-name="Nacute" horiz-adv-x="775" unicode="Ń" d="M354 763l96 130h65l-109 -130h-52zM104 0v700h44l472 -613v613h50v-700h-43l-473 614v-614h-50z"/>
<glyph glyph-name="nacute" horiz-adv-x="605" unicode="ń" d="M256 577l96 130h65l-109 -130h-52zM138 0h-49v478h49v-82q32 39 84.5 66.5t117.5 27.5q92 0 138.5 -52t46.5 -147v-291h-49v281q0 50 -14 84t-38.5 50t-48 22.5t-50.5 6.5q-55 0 -108 -33t-79 -76v-335z"/>
<glyph glyph-name="uni0145" horiz-adv-x="775" unicode="Ņ" d="M327 -220l55 169h54l-67 -169h-42zM104 0v700h44l472 -613v613h50v-700h-43l-473 614v-614h-50z"/>
<glyph glyph-name="uni0146" horiz-adv-x="605" unicode="ņ" d="M237 -220l55 169h54l-67 -169h-42zM138 0h-49v478h49v-82q32 39 84.5 66.5t117.5 27.5q92 0 138.5 -52t46.5 -147v-291h-49v281q0 50 -14 84t-38.5 50t-48 22.5t-50.5 6.5q-55 0 -108 -33t-79 -76v-335z"/>
<glyph glyph-name="Ncaron" horiz-adv-x="775" unicode="Ň" d="M361 763l-108 130h52l81 -97l82 97h53l-109 -130h-51zM104 0v700h44l472 -613v613h50v-700h-43l-473 614v-614h-50z"/>
<glyph glyph-name="ncaron" horiz-adv-x="605" unicode="ň" d="M281 577l-107 130h52l81 -98l82 98h52l-108 -130h-52zM138 0h-49v478h49v-82q32 39 84.5 66.5t117.5 27.5q92 0 138.5 -52t46.5 -147v-291h-49v281q0 50 -14 84t-38.5 50t-48 22.5t-50.5 6.5q-55 0 -108 -33t-79 -76v-335z"/>
<glyph glyph-name="napostrophe" horiz-adv-x="668" unicode="ŉ" d="M23 530l55 169h54l-67 -169h-42zM201 0h-49v478h49v-82q32 39 84.5 66.5t117.5 27.5q92 0 138.5 -52t46.5 -147v-291h-49v281q0 50 -14 84t-38.5 50t-48 22.5t-50.5 6.5q-55 0 -108 -33t-79 -76v-335z"/>
<glyph glyph-name="Eng" horiz-adv-x="775" unicode="Ŋ" d="M496 -204q-64 0 -110 24v53q46 -30 101 -30q133 0 133 154v11l-466 607v-615h-50v700h44l472 -614v614h50v-712q0 -98 -46 -145t-128 -47z"/>
<glyph glyph-name="eng" horiz-adv-x="605" unicode="ŋ" d="M138 0h-49v478h49v-82q32 39 84.5 66.5t117.5 27.5q92 0 138.5 -52t46.5 -147v-353q0 -74 -35.5 -108t-93.5 -34q-48 0 -78 18v46q33 -19 69 -19q89 0 89 105v335q0 50 -14 84t-38.5 50t-48 22.5t-50.5 6.5q-55 0 -108 -33t-79 -76v-335z"/>
<glyph glyph-name="Omacron" horiz-adv-x="846" unicode="Ō" d="M306 807v42h236v-42h-236zM423 -12q-150 0 -249.5 103t-99.5 259q0 155 100 258.5t249 103.5q148 0 248 -103.5t100 -258.5t-100 -258.5t-248 -103.5zM423 35q125 0 211 90t86 225t-86 224.5t-211 89.5q-126 0 -212 -89.5t-86 -224.5t86.5 -225t211.5 -90z"/>
<glyph glyph-name="omacron" horiz-adv-x="617" unicode="ō" d="M192 624v40h233v-40h-233zM308 -12q-112 0 -183 73.5t-71 176.5t71 177.5t183 74.5q113 0 184 -74.5t71 -177.5t-71 -176.5t-184 -73.5zM308 33q87 0 146 59.5t59 145.5q0 88 -59 147.5t-146 59.5t-145.5 -59.5t-58.5 -147.5q0 -87 58.5 -146t145.5 -59z"/>
<glyph glyph-name="Obreve" horiz-adv-x="846" unicode="Ŏ" d="M423 764q-53 0 -90.5 37.5t-39.5 93.5h43q1 -39 25.5 -65t61.5 -26t62 26t26 65h41q0 -56 -37.5 -93.5t-91.5 -37.5zM423 -12q-150 0 -249.5 103t-99.5 259q0 155 100 258.5t249 103.5q148 0 248 -103.5t100 -258.5t-100 -258.5t-248 -103.5zM423 35q125 0 211 90t86 225 t-86 224.5t-211 89.5q-126 0 -212 -89.5t-86 -224.5t86.5 -225t211.5 -90z"/>
<glyph glyph-name="obreve" horiz-adv-x="617" unicode="ŏ" d="M310 579q-54 0 -92 37t-38 93h42q1 -38 25.5 -64t62.5 -26q37 0 61.5 26t25.5 64h42q0 -56 -38.5 -93t-90.5 -37zM308 -12q-112 0 -183 73.5t-71 176.5t71 177.5t183 74.5q113 0 184 -74.5t71 -177.5t-71 -176.5t-184 -73.5zM308 33q87 0 146 59.5t59 145.5 q0 88 -59 147.5t-146 59.5t-145.5 -59.5t-58.5 -147.5q0 -87 58.5 -146t145.5 -59z"/>
<glyph glyph-name="Ohungarumlaut" horiz-adv-x="846" unicode="Ő" d="M316 763l96 130h66l-110 -130h-52zM464 763l97 130h64l-109 -130h-52zM423 -12q-150 0 -249.5 103t-99.5 259q0 155 100 258.5t249 103.5q148 0 248 -103.5t100 -258.5t-100 -258.5t-248 -103.5zM423 35q125 0 211 90t86 225t-86 224.5t-211 89.5q-126 0 -212 -89.5 t-86 -224.5t86.5 -225t211.5 -90z"/>
<glyph glyph-name="ohungarumlaut" horiz-adv-x="617" unicode="ő" d="M202 577l96 130h66l-110 -130h-52zM350 577l97 130h64l-109 -130h-52zM308 -12q-112 0 -183 73.5t-71 176.5t71 177.5t183 74.5q113 0 184 -74.5t71 -177.5t-71 -176.5t-184 -73.5zM308 33q87 0 146 59.5t59 145.5q0 88 -59 147.5t-146 59.5t-145.5 -59.5t-58.5 -147.5 q0 -87 58.5 -146t145.5 -59z"/>
<glyph glyph-name="OE" horiz-adv-x="1141" unicode="Œ" d="M462 46h150v608h-150q-156 0 -246 -83t-90 -221t90 -221t246 -83zM1093 0h-640q-169 0 -274 97t-105 253t105 253t274 97h624v-46h-416v-254h343v-47h-343v-307h432v-46z"/>
<glyph glyph-name="oe" horiz-adv-x="1026" unicode="œ" d="M562 273h360q0 38 -15.5 75t-56.5 67t-101 30q-82 0 -132.5 -52.5t-54.5 -119.5zM308 33q87 0 146 59.5t59 145.5q0 88 -59 147.5t-146 59.5t-145.5 -59.5t-58.5 -147.5q0 -87 58.5 -146t145.5 -59zM971 247v-16h-410q3 -88 63.5 -143t155.5 -55q89 0 154 45v-47 q-57 -43 -161 -43q-80 0 -142.5 37t-93.5 102q-30 -63 -89.5 -101t-139.5 -38q-112 0 -183 73.5t-71 176.5t71 177.5t183 74.5q78 0 137.5 -38.5t89.5 -100.5q28 64 84 101.5t131 37.5q48 0 87 -16t63.5 -41.5t41 -58.5t23 -64.5t6.5 -62.5z"/>
<glyph glyph-name="Racute" horiz-adv-x="736" unicode="Ŕ" d="M287 763l96 130h65l-109 -130h-52zM154 373h257q80 0 124 36.5t44 104.5q0 67 -44 103.5t-124 36.5h-257v-281zM104 0v700h311q101 0 157.5 -50.5t56.5 -134.5q0 -76 -45 -125t-128 -59l229 -331h-58l-228 327h-245v-327h-50z"/>
<glyph glyph-name="racute" horiz-adv-x="348" unicode="ŕ" d="M136 577l96 130h65l-109 -130h-52zM89 0v478h49v-99q26 45 78.5 78t114.5 33v-50q-68 0 -119.5 -38t-73.5 -88v-314h-49z"/>
<glyph glyph-name="uni0156" horiz-adv-x="736" unicode="Ŗ" d="M292 -220l55 169h54l-67 -169h-42zM154 373h257q80 0 124 36.5t44 104.5q0 67 -44 103.5t-124 36.5h-257v-281zM104 0v700h311q101 0 157.5 -50.5t56.5 -134.5q0 -76 -45 -125t-128 -59l229 -331h-58l-228 327h-245v-327h-50z"/>
<glyph glyph-name="uni0157" horiz-adv-x="348" unicode="ŗ" d="M33 -220l55 169h54l-67 -169h-42zM89 0v478h49v-99q26 45 78.5 78t114.5 33v-50q-68 0 -119.5 -38t-73.5 -88v-314h-49z"/>
<glyph glyph-name="Rcaron" horiz-adv-x="736" unicode="Ř" d="M313 763l-108 130h52l81 -97l82 97h53l-109 -130h-51zM154 373h257q80 0 124 36.5t44 104.5q0 67 -44 103.5t-124 36.5h-257v-281zM104 0v700h311q101 0 157.5 -50.5t56.5 -134.5q0 -76 -45 -125t-128 -59l229 -331h-58l-228 327h-245v-327h-50z"/>
<glyph glyph-name="rcaron" horiz-adv-x="346" unicode="ř" d="M177 577l-107 130h52l81 -98l82 98h52l-108 -130h-52zM87 0v478h49v-99q26 45 78.5 78t114.5 33v-50q-68 0 -119.5 -38t-73.5 -88v-314h-49z"/>
<glyph glyph-name="Sacute" horiz-adv-x="624" unicode="Ś" d="M253 763l96 130h65l-109 -130h-52zM304 -12q-78 0 -147 22t-109 53v57q39 -34 107.5 -59.5t144.5 -25.5q90 0 148 40.5t58 108.5q0 22 -6.5 40t-14.5 31t-26.5 25.5t-30.5 19.5t-40.5 16.5t-42.5 13.5t-48 14q-59 17 -92 29.5t-68.5 34.5t-51.5 54t-16 76q0 75 61 124.5 t172 49.5q121 0 213 -59v-53q-94 64 -211 64q-92 0 -138.5 -36.5t-46.5 -90.5q0 -19 6.5 -35.5t13.5 -28t26 -23.5t30 -18.5t40 -16t41.5 -13.5t48.5 -14q42 -12 68 -21t61 -26.5t54.5 -37t34 -50.5t14.5 -69q0 -92 -73.5 -144t-179.5 -52z"/>
<glyph glyph-name="sacute" horiz-adv-x="501" unicode="ś" d="M194 577l96 130h65l-109 -130h-52zM245 -12q-60 0 -114 15t-84 36v52q31 -22 84 -40t113 -18q69 0 109.5 24.5t40.5 67.5q0 39 -38.5 58.5t-123.5 40.5q-39 10 -65.5 19t-52.5 24.5t-39 38.5t-13 54q0 60 48 95t137 35q105 0 173 -44v-50q-78 49 -170 49 q-70 0 -104.5 -23.5t-34.5 -61.5q0 -18 9 -32t19.5 -22.5t35 -17t37.5 -12t45 -11.5q36 -9 56 -14.5t48.5 -17.5t44 -25t27 -35t11.5 -49q0 -63 -56.5 -99.5t-142.5 -36.5z"/>
<glyph glyph-name="Scircumflex" horiz-adv-x="624" unicode="Ŝ" d="M177 763l108 130h52l108 -130h-53l-81 98l-81 -98h-53zM304 -12q-78 0 -147 22t-109 53v57q39 -34 107.5 -59.5t144.5 -25.5q90 0 148 40.5t58 108.5q0 22 -6.5 40t-14.5 31t-26.5 25.5t-30.5 19.5t-40.5 16.5t-42.5 13.5t-48 14q-59 17 -92 29.5t-68.5 34.5t-51.5 54 t-16 76q0 75 61 124.5t172 49.5q121 0 213 -59v-53q-94 64 -211 64q-92 0 -138.5 -36.5t-46.5 -90.5q0 -19 6.5 -35.5t13.5 -28t26 -23.5t30 -18.5t40 -16t41.5 -13.5t48.5 -14q42 -12 68 -21t61 -26.5t54.5 -37t34 -50.5t14.5 -69q0 -92 -73.5 -144t-179.5 -52z"/>
<glyph glyph-name="scircumflex" horiz-adv-x="501" unicode="ŝ" d="M116 576l109 131h52l108 -131h-53l-82 98l-81 -98h-53zM245 -12q-60 0 -114 15t-84 36v52q31 -22 84 -40t113 -18q69 0 109.5 24.5t40.5 67.5q0 39 -38.5 58.5t-123.5 40.5q-39 10 -65.5 19t-52.5 24.5t-39 38.5t-13 54q0 60 48 95t137 35q105 0 173 -44v-50 q-78 49 -170 49q-70 0 -104.5 -23.5t-34.5 -61.5q0 -18 9 -32t19.5 -22.5t35 -17t37.5 -12t45 -11.5q36 -9 56 -14.5t48.5 -17.5t44 -25t27 -35t11.5 -49q0 -63 -56.5 -99.5t-142.5 -36.5z"/>
<glyph glyph-name="Scedilla" horiz-adv-x="624" unicode="Ş" d="M48 63v57q39 -34 107.5 -59.5t144.5 -25.5q90 0 148 40.5t58 108.5q0 22 -6.5 40t-14.5 31t-26.5 25.5t-30.5 19.5t-40.5 16.5t-42.5 13.5t-48 14q-59 17 -92 29.5t-68.5 34.5t-51.5 54t-16 76q0 75 61 124.5t172 49.5q121 0 213 -59v-53q-94 64 -211 64 q-92 0 -138.5 -36.5t-46.5 -90.5q0 -19 6.5 -35.5t13.5 -28t26 -23.5t30 -18.5t40 -16t41.5 -13.5t48.5 -14q42 -12 68 -21t61 -26.5t54.5 -37t34 -50.5t14.5 -69q0 -83 -60.5 -133.5t-152.5 -60.5l-65 -118h-60l79 116q-76 1 -143.5 22.5t-106.5 52.5z"/>
<glyph glyph-name="scedilla" horiz-adv-x="501" unicode="ş" d="M47 39v52q31 -22 84 -40t113 -18q69 0 109.5 24.5t40.5 67.5q0 39 -38.5 58.5t-123.5 40.5q-39 10 -65.5 19t-52.5 24.5t-39 38.5t-13 54q0 60 48 95t137 35q105 0 173 -44v-50q-78 49 -170 49q-70 0 -104.5 -23.5t-34.5 -61.5q0 -18 9 -32t19.5 -22.5t35 -17t37.5 -12 t45 -11.5q36 -9 56 -14.5t48.5 -17.5t44 -25t27 -35t11.5 -49q0 -57 -46 -92t-119 -42l-65 -118h-60l79 116q-57 1 -107.5 16t-78.5 35z"/>
<glyph glyph-name="Scaron" horiz-adv-x="624" unicode="Š" d="M272 763l-108 130h52l81 -97l82 97h53l-109 -130h-51zM304 -12q-78 0 -147 22t-109 53v57q39 -34 107.5 -59.5t144.5 -25.5q90 0 148 40.5t58 108.5q0 22 -6.5 40t-14.5 31t-26.5 25.5t-30.5 19.5t-40.5 16.5t-42.5 13.5t-48 14q-59 17 -92 29.5t-68.5 34.5t-51.5 54 t-16 76q0 75 61 124.5t172 49.5q121 0 213 -59v-53q-94 64 -211 64q-92 0 -138.5 -36.5t-46.5 -90.5q0 -19 6.5 -35.5t13.5 -28t26 -23.5t30 -18.5t40 -16t41.5 -13.5t48.5 -14q42 -12 68 -21t61 -26.5t54.5 -37t34 -50.5t14.5 -69q0 -92 -73.5 -144t-179.5 -52z"/>
<glyph glyph-name="scaron" horiz-adv-x="501" unicode="š" d="M222 577l-107 130h52l81 -98l82 98h52l-108 -130h-52zM245 -12q-60 0 -114 15t-84 36v52q31 -22 84 -40t113 -18q69 0 109.5 24.5t40.5 67.5q0 39 -38.5 58.5t-123.5 40.5q-39 10 -65.5 19t-52.5 24.5t-39 38.5t-13 54q0 60 48 95t137 35q105 0 173 -44v-50 q-78 49 -170 49q-70 0 -104.5 -23.5t-34.5 -61.5q0 -18 9 -32t19.5 -22.5t35 -17t37.5 -12t45 -11.5q36 -9 56 -14.5t48.5 -17.5t44 -25t27 -35t11.5 -49q0 -63 -56.5 -99.5t-142.5 -36.5z"/>
<glyph glyph-name="uni0162" horiz-adv-x="621" unicode="Ţ" d="M286 0v654h-250v46h550v-46h-250v-654l-71 -128h-60z"/>
<glyph glyph-name="uni0163" horiz-adv-x="423" unicode="ţ" d="M149 127v307h-121v44h121v153h49v-153h176v-44h-176v-294q0 -58 20.5 -81.5t68.5 -23.5q41 0 80 22v-47q-23 -16 -70 -21l-65 -117h-60l80 117q-103 13 -103 138z"/>
<glyph glyph-name="Tcaron" horiz-adv-x="621" unicode="Ť" d="M285 763l-108 130h52l81 -97l82 97h53l-109 -130h-51zM286 0v654h-250v46h550v-46h-250v-654h-50z"/>
<glyph glyph-name="tcaron" horiz-adv-x="535" unicode="ť" d="M428 530l55 169h54l-67 -169h-42zM286 -12q-64 0 -94.5 37t-30.5 102v307h-121v44h121v153h49v-153h176v-44h-176v-294q0 -58 20.5 -81.5t68.5 -23.5q41 0 80 22v-47q-31 -22 -93 -22z"/>
<glyph glyph-name="Tbar" horiz-adv-x="621" unicode="Ŧ" d="M286 0v351h-148v46h148v257h-250v46h550v-46h-250v-257h147v-46h-147v-351h-50z"/>
<glyph glyph-name="tbar" horiz-adv-x="423" unicode="ŧ" d="M28 238v44h121v152h-121v44h121v153h49v-153h176v-44h-176v-152h176v-44h-176v-98q0 -58 20.5 -81.5t68.5 -23.5q41 0 80 22v-47q-31 -22 -93 -22q-64 0 -94.5 37t-30.5 102v111h-121z"/>
<glyph glyph-name="Utilde" horiz-adv-x="747" unicode="Ũ" d="M445 775q-27 0 -75 31.5t-66 31.5q-36 0 -42 -57h-38q2 45 22.5 71.5t54.5 26.5q28 0 75.5 -30t66.5 -30q35 0 42 56h38q-2 -46 -22.5 -73t-55.5 -27zM374 -12q-127 0 -204 81.5t-77 229.5v401h50v-401q0 -125 62 -194.5t169 -69.5t168.5 69t61.5 195v401h50v-401 q0 -148 -77.5 -229.5t-202.5 -81.5z"/>
<glyph glyph-name="utilde" d="M372 592q-28 0 -75.5 31t-67.5 31q-35 0 -41 -56h-38q2 45 23 72t55 27q29 0 76 -30.5t65 -30.5q35 0 41 56h38q-2 -46 -22 -73t-54 -27zM468 478h49v-478h-49v82q-32 -39 -84.5 -66.5t-117.5 -27.5q-92 0 -138.5 52t-46.5 147v291h49v-281q0 -163 151 -163q54 0 107 33 t80 76v335z" unicode="ũ"/>
<glyph glyph-name="Umacron" horiz-adv-x="747" unicode="Ū" d="M256 807v42h236v-42h-236zM374 -12q-127 0 -204 81.5t-77 229.5v401h50v-401q0 -125 62 -194.5t169 -69.5t168.5 69t61.5 195v401h50v-401q0 -148 -77.5 -229.5t-202.5 -81.5z"/>
<glyph glyph-name="umacron" d="M182 624v40h233v-40h-233zM468 478h49v-478h-49v82q-32 -39 -84.5 -66.5t-117.5 -27.5q-92 0 -138.5 52t-46.5 147v291h49v-281q0 -163 151 -163q54 0 107 33t80 76v335z" unicode="ū"/>
<glyph glyph-name="Ubreve" horiz-adv-x="747" unicode="Ŭ" d="M373 762q-53 0 -90.5 37.5t-39.5 93.5h43q1 -39 25.5 -65t61.5 -26t62 26t26 65h41q0 -56 -37.5 -93.5t-91.5 -37.5zM374 -12q-127 0 -204 81.5t-77 229.5v401h50v-401q0 -125 62 -194.5t169 -69.5t168.5 69t61.5 195v401h50v-401q0 -148 -77.5 -229.5t-202.5 -81.5z"/>
<glyph glyph-name="ubreve" d="M300 577q-54 0 -92 37t-38 93h42q1 -38 25.5 -64t62.5 -26q37 0 61.5 26t25.5 64h42q0 -56 -38.5 -93t-90.5 -37zM468 478h49v-478h-49v82q-32 -39 -84.5 -66.5t-117.5 -27.5q-92 0 -138.5 52t-46.5 147v291h49v-281q0 -163 151 -163q54 0 107 33t80 76v335z" unicode="ŭ"/>
<glyph glyph-name="Uring" horiz-adv-x="747" unicode="Ů" d="M375 770q25 0 42 17t17 42q0 26 -17 43t-42 17q-26 0 -43.5 -17t-17.5 -43q0 -25 17.5 -42t43.5 -17zM375 736q-40 0 -67.5 27.5t-27.5 65.5q0 39 28 66.5t67 27.5q37 0 64.5 -28t27.5 -66t-27 -65.5t-65 -27.5zM374 -12q-127 0 -204 81.5t-77 229.5v401h50v-401 q0 -125 62 -194.5t169 -69.5t168.5 69t61.5 195v401h50v-401q0 -148 -77.5 -229.5t-202.5 -81.5z"/>
<glyph glyph-name="uring" d="M300 586q25 0 42.5 17t17.5 42q0 26 -17.5 43t-42.5 17q-26 0 -43.5 -17t-17.5 -43q0 -25 17.5 -42t43.5 -17zM300 552q-40 0 -67.5 27.5t-27.5 65.5q0 39 27.5 66.5t67.5 27.5q38 0 65 -28t27 -66t-27 -65.5t-65 -27.5zM468 478h49v-478h-49v82q-32 -39 -84.5 -66.5 t-117.5 -27.5q-92 0 -138.5 52t-46.5 147v291h49v-281q0 -163 151 -163q54 0 107 33t80 76v335z" unicode="ů"/>
<glyph glyph-name="Uhungarumlaut" horiz-adv-x="747" unicode="Ű" d="M261 763l96 130h66l-110 -130h-52zM409 763l97 130h64l-109 -130h-52zM374 -12q-127 0 -204 81.5t-77 229.5v401h50v-401q0 -125 62 -194.5t169 -69.5t168.5 69t61.5 195v401h50v-401q0 -148 -77.5 -229.5t-202.5 -81.5z"/>
<glyph glyph-name="uhungarumlaut" d="M190 577l96 130h66l-110 -130h-52zM338 577l97 130h64l-109 -130h-52zM468 478h49v-478h-49v82q-32 -39 -84.5 -66.5t-117.5 -27.5q-92 0 -138.5 52t-46.5 147v291h49v-281q0 -163 151 -163q54 0 107 33t80 76v335z" unicode="ű"/>
<glyph glyph-name="Uogonek" horiz-adv-x="747" unicode="Ų" d="M494 -186q-49 0 -77.5 28t-28.5 71t24 78q-18 -3 -38 -3q-127 0 -204 81.5t-77 229.5v401h50v-401q0 -125 62 -194.5t169 -69.5t168.5 69t61.5 195v401h50v-401q0 -117 -42 -182t-114 -103q-70 -39 -70 -95q0 -32 20.5 -50t54.5 -18q21 0 40 5v-36q-22 -6 -49 -6z"/>
<glyph glyph-name="uogonek" d="M545 -193q-50 0 -78.5 28t-28.5 71q0 51 38 94h-8v82q-32 -39 -84.5 -66.5t-117.5 -27.5q-92 0 -138.5 52t-46.5 147v291h49v-281q0 -163 151 -163q54 0 107 33t80 76v335h49v-478q-39 -43 -39 -88q0 -32 21 -50t54 -18q23 0 40 5v-36q-22 -6 -48 -6z" unicode="ų"/>
<glyph glyph-name="Wcircumflex" horiz-adv-x="1043" unicode="Ŵ" d="M386 763l108 130h52l108 -130h-53l-81 98l-81 -98h-53zM288 -4l-244 704h56l212 -621l188 623h42l190 -623l211 621h55l-243 -704h-45l-188 616l-191 -616h-43z"/>
<glyph glyph-name="wcircumflex" horiz-adv-x="818" unicode="ŵ" d="M272 576l109 131h52l108 -131h-53l-82 98l-81 -98h-53zM218 -4l-175 482h51l148 -406l144 408h42l145 -408l147 406h50l-175 -482h-42l-148 408l-144 -408h-43z"/>
<glyph glyph-name="Ycircumflex" horiz-adv-x="649" unicode="Ŷ" d="M190 763l108 130h52l108 -130h-53l-81 98l-81 -98h-53zM298 0v324l-272 376h60l238 -329l240 329h57l-273 -375v-325h-50z"/>
<glyph glyph-name="ycircumflex" horiz-adv-x="544" unicode="ŷ" d="M144 576l109 131h52l108 -131h-53l-82 98l-81 -98h-53zM103 -204q-48 0 -70 15v46q28 -16 64 -16q47 0 78.5 38.5t71.5 129.5l-221 469h55l190 -410l184 410h54l-241 -532q-34 -75 -72 -112.5t-93 -37.5z"/>
<glyph glyph-name="Ydieresis" horiz-adv-x="649" unicode="Ÿ" d="M382 825q0 16 11 27t27 11t27 -11t11 -27t-11 -27t-27 -11t-27 11t-11 27zM191 825q0 16 11 27t27 11t27 -11t11 -27t-11 -27t-27 -11t-27 11t-11 27zM298 0v324l-272 376h60l238 -329l240 329h57l-273 -375v-325h-50z"/>
<glyph glyph-name="Zacute" horiz-adv-x="639" unicode="Ź" d="M282 763l96 130h65l-109 -130h-52zM53 0v36l451 618h-424v46h490v-36l-446 -618h462v-46h-533z"/>
<glyph glyph-name="zacute" horiz-adv-x="494" unicode="ź" d="M200 577l96 130h65l-109 -130h-52zM38 0v33l330 401h-306v44h377v-35l-329 -399h345v-44h-417z"/>
<glyph glyph-name="Zdotaccent" horiz-adv-x="639" unicode="Ż" d="M280 825q0 17 12 28.5t28 11.5t28 -11.5t12 -28.5t-12 -28.5t-28 -11.5t-28 11.5t-12 28.5zM53 0v36l451 618h-424v46h490v-36l-446 -618h462v-46h-533z"/>
<glyph glyph-name="zdotaccent" horiz-adv-x="494" unicode="ż" d="M207 645q0 17 11.5 28.5t28.5 11.5t28.5 -11.5t11.5 -28.5t-11.5 -28.5t-28.5 -11.5t-28.5 11.5t-11.5 28.5zM38 0v33l330 401h-306v44h377v-35l-329 -399h345v-44h-417z"/>
<glyph glyph-name="Zcaron" horiz-adv-x="639" unicode="Ž" d="M294 763l-108 130h52l81 -97l82 97h53l-109 -130h-51zM53 0v36l451 618h-424v46h490v-36l-446 -618h462v-46h-533z"/>
<glyph glyph-name="zcaron" horiz-adv-x="494" unicode="ž" d="M219 577l-107 130h52l81 -98l82 98h52l-108 -130h-52zM38 0v33l330 401h-306v44h377v-35l-329 -399h345v-44h-417z"/>
<glyph glyph-name="longs" horiz-adv-x="319" unicode="ſ" d="M175 0h-49v434h-98v44h98v93q0 63 33 99.5t95 36.5q55 0 94 -20v-46q-40 21 -84 21q-43 0 -66 -26.5t-23 -75.5v-560z"/>
<glyph glyph-name="florin" horiz-adv-x="477" unicode="ƒ" d="M0 -204q-44 0 -81 17v45q36 -17 74 -17q58 0 94 40t47 115l54 354h-138v44h144l20 126q15 93 58 140t122 47q50 0 83 -16v-47q-38 18 -75 18q-59 0 -93.5 -35t-46.5 -117l-18 -116h169v-44h-175l-57 -365q-13 -85 -58.5 -137t-122.5 -52z"/>
<glyph glyph-name="uni0218" horiz-adv-x="624" unicode="Ș" d="M235 -220l55 169h54l-67 -169h-42zM304 -12q-78 0 -147 22t-109 53v57q39 -34 107.5 -59.5t144.5 -25.5q90 0 148 40.5t58 108.5q0 22 -6.5 40t-14.5 31t-26.5 25.5t-30.5 19.5t-40.5 16.5t-42.5 13.5t-48 14q-59 17 -92 29.5t-68.5 34.5t-51.5 54t-16 76q0 75 61 124.5 t172 49.5q121 0 213 -59v-53q-94 64 -211 64q-92 0 -138.5 -36.5t-46.5 -90.5q0 -19 6.5 -35.5t13.5 -28t26 -23.5t30 -18.5t40 -16t41.5 -13.5t48.5 -14q42 -12 68 -21t61 -26.5t54.5 -37t34 -50.5t14.5 -69q0 -92 -73.5 -144t-179.5 -52z"/>
<glyph glyph-name="uni0219" horiz-adv-x="501" unicode="ș" d="M173 -220l55 169h54l-67 -169h-42zM245 -12q-60 0 -114 15t-84 36v52q31 -22 84 -40t113 -18q69 0 109.5 24.5t40.5 67.5q0 39 -38.5 58.5t-123.5 40.5q-39 10 -65.5 19t-52.5 24.5t-39 38.5t-13 54q0 60 48 95t137 35q105 0 173 -44v-50q-78 49 -170 49 q-70 0 -104.5 -23.5t-34.5 -61.5q0 -18 9 -32t19.5 -22.5t35 -17t37.5 -12t45 -11.5q36 -9 56 -14.5t48.5 -17.5t44 -25t27 -35t11.5 -49q0 -63 -56.5 -99.5t-142.5 -36.5z"/>
<glyph glyph-name="uni021A" horiz-adv-x="621" unicode="Ț" d="M227 -220l55 169h54l-67 -169h-42zM286 0v654h-250v46h550v-46h-250v-654h-50z"/>
<glyph glyph-name="uni021B" horiz-adv-x="423" unicode="ț" d="M194 -220l55 169h54l-67 -169h-42zM274 -12q-64 0 -94.5 37t-30.5 102v307h-121v44h121v153h49v-153h176v-44h-176v-294q0 -58 20.5 -81.5t68.5 -23.5q41 0 80 22v-47q-31 -22 -93 -22z"/>
<glyph glyph-name="circumflex" horiz-adv-x="528" unicode="ˆ" d="M130 576l109 131h52l108 -131h-53l-82 98l-81 -98h-53z"/>
<glyph glyph-name="caron" horiz-adv-x="518" unicode="ˇ" d="M227 577l-107 130h52l81 -98l82 98h52l-108 -130h-52z"/>
<glyph glyph-name="uni02C9" horiz-adv-x="518" unicode="ˉ" d="M94 624v40h330v-40h-330z"/>
<glyph glyph-name="breve" horiz-adv-x="511" unicode="˘" d="M255 577q-54 0 -92 37t-38 93h42q1 -38 25.5 -64t62.5 -26q37 0 61.5 26t25.5 64h42q0 -56 -38.5 -93t-90.5 -37z"/>
<glyph glyph-name="dotaccent" horiz-adv-x="536" unicode="˙" d="M228 645q0 17 12 28.5t28 11.5t28 -11.5t12 -28.5t-12 -28.5t-28 -11.5t-28 11.5t-12 28.5z"/>
<glyph glyph-name="ring" horiz-adv-x="531" unicode="˚" d="M262 586q25 0 42.5 17t17.5 42q0 26 -17.5 43t-42.5 17q-26 0 -43.5 -17t-17.5 -43q0 -25 17.5 -42t43.5 -17zM262 552q-40 0 -67.5 27.5t-27.5 65.5q0 39 27.5 66.5t67.5 27.5q38 0 65 -28t27 -66t-27 -65.5t-65 -27.5z"/>
<glyph glyph-name="ogonek" horiz-adv-x="516" unicode="˛" d="M308 -186q-50 0 -78.5 28t-28.5 71q0 51 38 94h41q-39 -43 -39 -88q0 -32 21 -50t54 -18q22 0 40 5v-36q-22 -6 -48 -6z"/>
<glyph glyph-name="tilde" horiz-adv-x="519" unicode="˜" d="M332 592q-28 0 -76 31t-67 31q-35 0 -41 -56h-38q2 45 23 72t55 27q29 0 76 -30.5t65 -30.5q35 0 41 56h38q-2 -46 -22 -73t-54 -27z"/>
<glyph glyph-name="hungarumlaut" horiz-adv-x="553" unicode="˝" d="M130 577l96 130h66l-110 -130h-52zM278 577l97 130h64l-109 -130h-52z"/>
<glyph glyph-name="acutecomb" horiz-adv-x="20" unicode="́" d="M-308 577l96 130h65l-109 -130h-52z"/>
<glyph glyph-name="uni1E02" horiz-adv-x="720" unicode="Ḃ" d="M302 825q0 17 12 28.5t28 11.5t28 -11.5t12 -28.5t-12 -28.5t-28 -11.5t-28 11.5t-12 28.5zM154 395h239q74 0 114 33.5t40 95.5t-40 96t-114 34h-239v-259zM154 46h271q86 0 133 40t47 113t-47 112.5t-133 39.5h-271v-305zM104 0v700h295q93 0 145 -45t52 -124 q0 -113 -96 -150q75 -11 117 -60.5t42 -126.5q0 -88 -60 -141t-166 -53h-329z"/>
<glyph glyph-name="uni1E03" horiz-adv-x="631" unicode="ḃ" d="M282 825q0 17 12 28.5t28 11.5t28 -11.5t12 -28.5t-12 -28.5t-28 -11.5t-28 11.5t-12 28.5zM324 33q87 0 145 59t58 146q0 88 -58 147.5t-145 59.5q-60 0 -110.5 -33.5t-75.5 -84.5v-177q24 -52 75 -84.5t111 -32.5zM334 -12q-127 0 -196 95v-83h-49v700h49v-306 q70 96 196 96q107 0 175 -74.5t68 -177.5q0 -102 -68 -176t-175 -74z"/>
<glyph glyph-name="uni1E0A" horiz-adv-x="775" unicode="Ḋ" d="M296 825q0 17 12 28.5t28 11.5t28 -11.5t12 -28.5t-12 -28.5t-28 -11.5t-28 11.5t-12 28.5zM154 46h161q155 0 244.5 83t89.5 221t-89.5 221t-244.5 83h-161v-608zM104 0v700h219q168 0 272.5 -97t104.5 -253t-104.5 -253t-272.5 -97h-219z"/>
<glyph glyph-name="uni1E0B" horiz-adv-x="632" unicode="ḋ" d="M272 825q0 17 12 28.5t28 11.5t28 -11.5t12 -28.5t-12 -28.5t-28 -11.5t-28 11.5t-12 28.5zM307 33q60 0 111 32.5t75 84.5v177q-25 51 -75.5 84.5t-110.5 33.5q-87 0 -145 -59.5t-58 -147.5q0 -87 58 -146t145 -59zM297 -12q-107 0 -175 74t-68 176q0 103 68 177.5 t175 74.5q126 0 196 -96v306h49v-700h-49v83q-69 -95 -196 -95z"/>
<glyph glyph-name="uni1E1E" horiz-adv-x="618" unicode="Ḟ" d="M296 825q0 17 12 28.5t28 11.5t28 -11.5t12 -28.5t-12 -28.5t-28 -11.5t-28 11.5t-12 28.5zM104 0v700h465v-46h-415v-263h343v-47h-343v-344h-50z"/>
<glyph glyph-name="uni1E1F" horiz-adv-x="376" unicode="ḟ" d="M199 825q0 17 11.5 28.5t28.5 11.5t28.5 -11.5t11.5 -28.5t-11.5 -28.5t-28.5 -11.5t-28.5 11.5t-11.5 28.5zM175 0h-49v434h-98v44h98v93q0 63 33 99.5t95 36.5q55 0 94 -20v-46q-40 21 -84 21q-43 0 -66 -26.5t-23 -75.5v-82h173v-44h-173v-434z"/>
<glyph glyph-name="uni1E40" horiz-adv-x="847" unicode="Ṁ" d="M384 825q0 17 12 28.5t28 11.5t28 -11.5t12 -28.5t-12 -28.5t-28 -11.5t-28 11.5t-12 28.5zM104 0v700h51l269 -354l269 354h49v-700h-50v623l-252 -332h-32l-254 332v-623h-50z"/>
<glyph glyph-name="uni1E41" horiz-adv-x="914" unicode="ṁ" d="M423 645q0 17 11.5 28.5t28.5 11.5t28.5 -11.5t11.5 -28.5t-11.5 -28.5t-28.5 -11.5t-28.5 11.5t-11.5 28.5zM89 0v478h49v-78q25 39 72 64.5t108 25.5q121 0 155 -101q69 101 191 101q81 0 125.5 -49.5t44.5 -142.5v-298h-49v288q0 49 -13.5 82.5t-36 48t-42 20 t-41.5 5.5q-51 0 -98 -32.5t-70 -79.5q2 -38 2 -50v-282h-49v289q0 155 -132 155q-49 0 -95 -30.5t-72 -76.5v-337h-49z"/>
<glyph glyph-name="uni1E56" horiz-adv-x="665" unicode="Ṗ" d="M293 825q0 17 11.5 28.5t28.5 11.5t28.5 -11.5t11.5 -28.5t-11.5 -28.5t-28.5 -11.5t-28.5 11.5t-11.5 28.5zM154 367h237q82 0 127 37.5t45 106.5q0 68 -45 105.5t-127 37.5h-237v-287zM104 0v700h292q103 0 160 -51.5t57 -137.5t-57 -138t-160 -52h-242v-321h-50z"/>
<glyph glyph-name="uni1E57" horiz-adv-x="631" unicode="ṗ" d="M286 645q0 17 12 28.5t28 11.5t28 -11.5t12 -28.5t-12 -28.5t-28 -11.5t-28 11.5t-12 28.5zM324 445q-60 0 -111 -32.5t-75 -84.5v-177q24 -51 75 -84.5t111 -33.5q87 0 145 59.5t58 146.5t-58 146.5t-145 59.5zM334 490q107 0 175 -74t68 -177t-68 -177t-175 -74 q-126 0 -196 96v-284h-49v678h49v-83q69 95 196 95z"/>
<glyph glyph-name="uni1E60" horiz-adv-x="624" unicode="Ṡ" d="M254 825q0 17 12 28.5t28 11.5t28 -11.5t12 -28.5t-12 -28.5t-28 -11.5t-28 11.5t-12 28.5zM304 -12q-78 0 -147 22t-109 53v57q39 -34 107.5 -59.5t144.5 -25.5q90 0 148 40.5t58 108.5q0 22 -6.5 40t-14.5 31t-26.5 25.5t-30.5 19.5t-40.5 16.5t-42.5 13.5t-48 14 q-59 17 -92 29.5t-68.5 34.5t-51.5 54t-16 76q0 75 61 124.5t172 49.5q121 0 213 -59v-53q-94 64 -211 64q-92 0 -138.5 -36.5t-46.5 -90.5q0 -19 6.5 -35.5t13.5 -28t26 -23.5t30 -18.5t40 -16t41.5 -13.5t48.5 -14q42 -12 68 -21t61 -26.5t54.5 -37t34 -50.5t14.5 -69 q0 -92 -73.5 -144t-179.5 -52z"/>
<glyph glyph-name="uni1E61" horiz-adv-x="501" unicode="ṡ" d="M204 645q0 17 12 28.5t28 11.5t28 -11.5t12 -28.5t-12 -28.5t-28 -11.5t-28 11.5t-12 28.5zM245 -12q-60 0 -114 15t-84 36v52q31 -22 84 -40t113 -18q69 0 109.5 24.5t40.5 67.5q0 39 -38.5 58.5t-123.5 40.5q-39 10 -65.5 19t-52.5 24.5t-39 38.5t-13 54q0 60 48 95 t137 35q105 0 173 -44v-50q-78 49 -170 49q-70 0 -104.5 -23.5t-34.5 -61.5q0 -18 9 -32t19.5 -22.5t35 -17t37.5 -12t45 -11.5q36 -9 56 -14.5t48.5 -17.5t44 -25t27 -35t11.5 -49q0 -63 -56.5 -99.5t-142.5 -36.5z"/>
<glyph glyph-name="uni1E6A" horiz-adv-x="621" unicode="Ṫ" d="M271 825q0 17 11.5 28.5t28.5 11.5t28.5 -11.5t11.5 -28.5t-11.5 -28.5t-28.5 -11.5t-28.5 11.5t-11.5 28.5zM286 0v654h-250v46h550v-46h-250v-654h-50z"/>
<glyph glyph-name="uni1E6B" horiz-adv-x="423" unicode="ṫ" d="M134 729q0 17 12 28.5t28 11.5t28 -11.5t12 -28.5t-12 -28.5t-28 -11.5t-28 11.5t-12 28.5zM274 -12q-64 0 -94.5 37t-30.5 102v307h-121v44h121v153h49v-153h176v-44h-176v-294q0 -58 20.5 -81.5t68.5 -23.5q41 0 80 22v-47q-31 -22 -93 -22z"/>
<glyph glyph-name="Wgrave" horiz-adv-x="1043" unicode="Ẁ" d="M495 763l-110 130h66l96 -130h-52zM288 -4l-244 704h56l212 -621l188 623h42l190 -623l211 621h55l-243 -704h-45l-188 616l-191 -616h-43z"/>
<glyph glyph-name="wgrave" horiz-adv-x="818" unicode="ẁ" d="M386 577l-111 130h67l96 -130h-52zM218 -4l-175 482h51l148 -406l144 408h42l145 -408l147 406h50l-175 -482h-42l-148 408l-144 -408h-43z"/>
<glyph glyph-name="Wacute" horiz-adv-x="1043" unicode="Ẃ" d="M493 763l96 130h65l-109 -130h-52zM288 -4l-244 704h56l212 -621l188 623h42l190 -623l211 621h55l-243 -704h-45l-188 616l-191 -616h-43z"/>
<glyph glyph-name="wacute" horiz-adv-x="818" unicode="ẃ" d="M379 577l96 130h65l-109 -130h-52zM218 -4l-175 482h51l148 -406l144 408h42l145 -408l147 406h50l-175 -482h-42l-148 408l-144 -408h-43z"/>
<glyph glyph-name="Wdieresis" horiz-adv-x="1043" unicode="Ẅ" d="M579 825q0 16 11 27t27 11t27 -11t11 -27t-11 -27t-27 -11t-27 11t-11 27zM388 825q0 16 11 27t27 11t27 -11t11 -27t-11 -27t-27 -11t-27 11t-11 27zM288 -4l-244 704h56l212 -621l188 623h42l190 -623l211 621h55l-243 -704h-45l-188 616l-191 -616h-43z"/>
<glyph glyph-name="wdieresis" horiz-adv-x="818" unicode="ẅ" d="M464 645q0 16 11 27t27 11t27 -11t11 -27t-11 -27t-27 -11t-27 11t-11 27zM273 645q0 16 11 27t27 11t27 -11t11 -27t-11 -27t-27 -11t-27 11t-11 27zM218 -4l-175 482h51l148 -406l144 408h42l145 -408l147 406h50l-175 -482h-42l-148 408l-144 -408h-43z"/>
<glyph glyph-name="Ygrave" horiz-adv-x="649" unicode="Ỳ" d="M313 763l-110 130h66l96 -130h-52zM298 0v324l-272 376h60l238 -329l240 329h57l-273 -375v-325h-50z"/>
<glyph glyph-name="ygrave" horiz-adv-x="544" unicode="ỳ" d="M268 577l-111 130h67l96 -130h-52zM103 -204q-48 0 -70 15v46q28 -16 64 -16q47 0 78.5 38.5t71.5 129.5l-221 469h55l190 -410l184 410h54l-241 -532q-34 -75 -72 -112.5t-93 -37.5z"/>
<glyph glyph-name="endash" horiz-adv-x="719" unicode="–" d="M103 247v45h513v-45h-513z"/>
<glyph glyph-name="emdash" horiz-adv-x="904" unicode="—" d="M103 247v45h699v-45h-699z"/>
<glyph glyph-name="quoteleft" horiz-adv-x="182" unicode="‘" d="M156 700l-76 -241h-60l94 241h42z"/>
<glyph glyph-name="quoteright" horiz-adv-x="182" unicode="’" d="M25 459l76 241h60l-94 -241h-42z"/>
<glyph glyph-name="quotesinglbase" horiz-adv-x="224" unicode="‚" d="M22 -152l76 241h60l-94 -241h-42z"/>
<glyph glyph-name="quotedblleft" horiz-adv-x="313" unicode="“" d="M156 700l-76 -241h-60l94 241h42zM286 700l-76 -241h-60l94 241h42z"/>
<glyph glyph-name="quotedblright" horiz-adv-x="313" unicode="”" d="M25 459l76 241h60l-94 -241h-42zM155 459l76 241h60l-94 -241h-42z"/>
<glyph glyph-name="quotedblbase" horiz-adv-x="354" unicode="„" d="M22 -152l76 241h60l-94 -241h-42zM152 -152l76 241h60l-94 -241h-42z"/>
<glyph glyph-name="bullet" horiz-adv-x="406" unicode="•" d="M202 279q-40 0 -70 29.5t-30 69.5q0 41 30 70.5t70 29.5q43 0 72 -29t29 -71q0 -41 -29.5 -70t-71.5 -29z"/>
<glyph glyph-name="guilsinglleft" horiz-adv-x="313" unicode="‹" d="M207 42l-156 184v27l156 183h57l-167 -198l167 -196h-57z"/>
<glyph glyph-name="guilsinglright" horiz-adv-x="314" unicode="›" d="M263 226l-156 -184h-57l167 196l-167 198h57l156 -183v-27z"/>
<glyph glyph-name="fraction" horiz-adv-x="169" unicode="⁄" d="M-138 0l408 700h51l-408 -700h-51z"/>
<glyph glyph-name="zerosuperior" horiz-adv-x="390" unicode="⁰" d="M195 357q49 0 80.5 44.5t31.5 109.5t-31.5 109.5t-80.5 44.5t-80.5 -44.5t-31.5 -109.5t31.5 -109.5t80.5 -44.5zM195 317q-69 0 -113.5 56t-44.5 138t44.5 138t113.5 56t113.5 -56t44.5 -138t-44.5 -138t-113.5 -56z"/>
<glyph glyph-name="foursuperior" horiz-adv-x="353" unicode="⁴" d="M75 462h149v178zM224 322v102h-201v34l203 242h43v-238h61v-38h-61v-102h-45z"/>
<glyph glyph-name="fivesuperior" horiz-adv-x="336" unicode="⁵" d="M145 317q-61 0 -108 26v44q54 -30 106 -30q46 0 76.5 24.5t30.5 62.5q0 35 -28.5 58.5t-75.5 23.5q-54 0 -94 -15l25 189h194v-39h-159l-13 -104q21 6 56 6q61 0 101 -33t40 -86q0 -57 -43.5 -92t-107.5 -35z"/>
<glyph glyph-name="sixsuperior" horiz-adv-x="354" unicode="⁶" d="M184 356q38 0 63 24.5t25 63.5q0 37 -25.5 61t-62.5 24q-31 0 -57 -18t-40 -46q2 -49 27.5 -79t69.5 -30zM186 317q-70 0 -108 49t-38 128q0 91 44.5 151t121.5 60q50 0 85 -22v-42q-36 24 -79 24q-56 0 -91 -41t-36 -110q38 52 109 52q52 0 87.5 -34t35.5 -88 q0 -55 -37.5 -91t-93.5 -36z"/>
<glyph glyph-name="sevensuperior" horiz-adv-x="312" unicode="⁷" d="M57 322l174 339h-201v39h252v-35l-174 -343h-51z"/>
<glyph glyph-name="eightsuperior" horiz-adv-x="361" unicode="⁸" d="M180 539q38 0 61.5 17t23.5 45q0 31 -24 48.5t-61 17.5t-60.5 -17.5t-23.5 -48.5q0 -28 23.5 -45t60.5 -17zM180 355q44 0 73 21.5t29 53.5q0 34 -28.5 54t-73.5 20t-73 -20t-28 -54q0 -32 28.5 -53.5t72.5 -21.5zM180 317q-63 0 -105 29.5t-42 79.5q0 70 77 98 q-57 24 -57 82q0 44 36 71.5t91 27.5q56 0 92 -27.5t36 -71.5q0 -58 -57 -82q77 -28 77 -98q0 -50 -42.5 -79.5t-105.5 -29.5z"/>
<glyph glyph-name="ninesuperior" horiz-adv-x="354" unicode="⁹" d="M174 666q-39 0 -64 -24.5t-25 -63.5q0 -38 25.5 -61.5t63.5 -23.5q31 0 56.5 18t39.5 46q-2 48 -27.5 78.5t-68.5 30.5zM171 705q70 0 108 -49t38 -128q0 -91 -45 -151t-122 -60q-49 0 -83 22v42q36 -24 79 -24q55 0 90 41t36 110q-40 -52 -108 -52q-52 0 -88 34t-36 88 q0 55 37.5 91t93.5 36z"/>
<glyph glyph-name="zeroinferior" horiz-adv-x="390" unicode="₀" d="M195 35q49 0 80.5 44.5t31.5 109.5t-31.5 109.5t-80.5 44.5t-80.5 -44.5t-31.5 -109.5t31.5 -109.5t80.5 -44.5zM195 -5q-69 0 -113.5 56t-44.5 138t44.5 138t113.5 56t113.5 -56t44.5 -138t-44.5 -138t-113.5 -56z"/>
<glyph glyph-name="oneinferior" horiz-adv-x="235" unicode="₁" d="M129 0v330l-104 -62v46l107 64h43v-378h-46z"/>
<glyph glyph-name="twoinferior" horiz-adv-x="357" unicode="₂" d="M46 0v34l127 119q39 36 56.5 61.5t17.5 55.5q0 32 -22.5 51t-59.5 19q-62 0 -111 -46v48q47 41 115 41q53 0 88.5 -30t35.5 -78q0 -37 -20 -69.5t-64 -74.5l-96 -92h194v-39h-261z"/>
<glyph glyph-name="threeinferior" horiz-adv-x="323" unicode="₃" d="M139 -5q-70 0 -113 29v43q49 -32 110 -32q41 0 72 23.5t31 62.5q0 37 -26.5 59t-72.5 22q-22 0 -45 -7v31l115 113h-168v39h229v-33l-112 -110q51 -3 88 -31.5t37 -83.5q0 -56 -41 -90.5t-104 -34.5z"/>
<glyph glyph-name="fourinferior" horiz-adv-x="353" unicode="₄" d="M75 140h149v178zM224 0v102h-201v34l203 242h43v-238h61v-38h-61v-102h-45z"/>
<glyph glyph-name="fiveinferior" horiz-adv-x="336" unicode="₅" d="M145 -5q-61 0 -108 26v44q54 -30 106 -30q46 0 76.5 24.5t30.5 62.5q0 35 -28.5 58.5t-75.5 23.5q-54 0 -94 -15l25 189h194v-39h-159l-13 -104q21 6 56 6q61 0 101 -33t40 -86q0 -57 -43.5 -92t-107.5 -35z"/>
<glyph glyph-name="sixinferior" horiz-adv-x="354" unicode="₆" d="M184 34q38 0 63 24.5t25 63.5q0 37 -25.5 61t-62.5 24q-31 0 -57 -18t-40 -46q2 -49 27.5 -79t69.5 -30zM186 -5q-70 0 -108 49t-38 128q0 91 44.5 151t121.5 60q50 0 85 -22v-42q-36 24 -79 24q-56 0 -91 -41t-36 -110q38 52 109 52q52 0 87.5 -34t35.5 -88 q0 -55 -37.5 -91t-93.5 -36z"/>
<glyph glyph-name="seveninferior" horiz-adv-x="312" unicode="₇" d="M57 0l174 339h-201v39h252v-35l-174 -343h-51z"/>
<glyph glyph-name="eightinferior" horiz-adv-x="361" unicode="₈" d="M180 217q38 0 61.5 17t23.5 45q0 31 -24 48.5t-61 17.5t-60.5 -17.5t-23.5 -48.5q0 -28 23.5 -45t60.5 -17zM180 33q44 0 73 21.5t29 53.5q0 34 -28.5 54t-73.5 20t-73 -20t-28 -54q0 -32 28.5 -53.5t72.5 -21.5zM180 -5q-63 0 -105 29.5t-42 79.5q0 70 77 98 q-57 24 -57 82q0 44 36 71.5t91 27.5q56 0 92 -27.5t36 -71.5q0 -58 -57 -82q77 -28 77 -98q0 -50 -42.5 -79.5t-105.5 -29.5z"/>
<glyph glyph-name="nineinferior" horiz-adv-x="354" unicode="₉" d="M174 344q-39 0 -64 -24.5t-25 -63.5q0 -38 25.5 -61.5t63.5 -23.5q31 0 56.5 18t39.5 46q-2 48 -27.5 78.5t-68.5 30.5zM171 383q70 0 108 -49t38 -128q0 -91 -45 -151t-122 -60q-49 0 -83 22v42q36 -24 79 -24q55 0 90 41t36 110q-40 -52 -108 -52q-52 0 -88 34t-36 88 q0 55 37.5 91t93.5 36z"/>
<glyph glyph-name="franc" horiz-adv-x="628" unicode="₣" d="M114 0v163h-118v45h118v492h465v-46h-415v-263h344v-47h-344v-136h182v-45h-182v-163h-50z"/>
<glyph glyph-name="lira" horiz-adv-x="581" unicode="₤" d="M66 0v46h23q46 0 46 79v98h-69v45h69v111h-69v46h69v65q0 106 58.5 164t162.5 58q95 0 163 -45v-52q-65 50 -158 50q-86 0 -131 -46.5t-45 -134.5v-59h280v-46h-280v-111h280v-45h-280v-124q0 -37 -22 -53h361v-46h-458z"/>
<glyph glyph-name="peseta" horiz-adv-x="702" unicode="₧" d="M158 367h238q82 0 126.5 37.5t44.5 106.5q0 68 -44.5 105.5t-126.5 37.5h-238v-287zM108 0v487h-85v45h85v168h292q96 0 152 -45.5t64 -122.5h77v-45h-78q-9 -77 -64.5 -121.5t-150.5 -44.5h-242v-321h-50z"/>
<glyph glyph-name="Euro" horiz-adv-x="691" unicode="€" d="M448 -12q-122 0 -206 74.5t-104 199.5h-92v45h86q-1 16 -1 48q0 23 4 63h-89v46h97q28 113 108.5 180.5t196.5 67.5q103 0 177 -52v-52q-78 56 -174 56q-95 0 -163 -53.5t-93 -146.5h273v-46h-282q-5 -33 -5 -63q0 -22 2 -48h285v-45h-278q19 -105 88.5 -166t172.5 -61 q114 0 190 71v-55q-78 -63 -193 -63z"/>
<glyph glyph-name="uni20B4" d="M66 405v46h323q70 43 70 107q0 106 -167 106q-86 0 -165 -35v49q71 34 168 34q106 0 161 -40t55 -109q0 -67 -55 -112h84v-46h-474zM323 -12q-106 0 -162.5 40t-56.5 110q0 79 68 129h-106v46h474v-46h-296q-89 -49 -89 -121q0 -111 173 -111q94 0 172 39v-50 q-74 -36 -177 -36z" unicode="₴"/>
<glyph glyph-name="uni20B6" horiz-adv-x="666" unicode="₶" d="M169 367h235q82 0 126.5 37.5t44.5 106.5q0 68 -44.5 105.5t-126.5 37.5h-235v-287zM119 0v164h-95v46h95v112h-95v45h95v333h289q103 0 160 -51.5t57 -137.5q0 -85 -57 -137t-160 -52h-239v-112h304v-46h-304v-164h-50z"/>
<glyph glyph-name="uni20B6" horiz-adv-x="666" unicode="⃏" d="M169 367h235q82 0 126.5 37.5t44.5 106.5q0 68 -44.5 105.5t-126.5 37.5h-235v-287zM119 0v164h-95v46h95v112h-95v45h95v333h289q103 0 160 -51.5t57 -137.5q0 -85 -57 -137t-160 -52h-239v-112h304v-46h-304v-164h-50z"/>
<glyph glyph-name="uni20B6" horiz-adv-x="666" unicode="⃎" d="M169 367h235q82 0 126.5 37.5t44.5 106.5q0 68 -44.5 105.5t-126.5 37.5h-235v-287zM119 0v164h-95v46h95v112h-95v45h95v333h289q103 0 160 -51.5t57 -137.5q0 -85 -57 -137t-160 -52h-239v-112h304v-46h-304v-164h-50z"/>
<glyph glyph-name="uni20B6" horiz-adv-x="666" unicode="⃍" d="M169 367h235q82 0 126.5 37.5t44.5 106.5q0 68 -44.5 105.5t-126.5 37.5h-235v-287zM119 0v164h-95v46h95v112h-95v45h95v333h289q103 0 160 -51.5t57 -137.5q0 -85 -57 -137t-160 -52h-239v-112h304v-46h-304v-164h-50z"/>
<glyph glyph-name="uni20B6" horiz-adv-x="666" unicode="⃌" d="M169 367h235q82 0 126.5 37.5t44.5 106.5q0 68 -44.5 105.5t-126.5 37.5h-235v-287zM119 0v164h-95v46h95v112h-95v45h95v333h289q103 0 160 -51.5t57 -137.5q0 -85 -57 -137t-160 -52h-239v-112h304v-46h-304v-164h-50z"/>
<glyph glyph-name="uni20B6" horiz-adv-x="666" unicode="⃋" d="M169 367h235q82 0 126.5 37.5t44.5 106.5q0 68 -44.5 105.5t-126.5 37.5h-235v-287zM119 0v164h-95v46h95v112h-95v45h95v333h289q103 0 160 -51.5t57 -137.5q0 -85 -57 -137t-160 -52h-239v-112h304v-46h-304v-164h-50z"/>
<glyph glyph-name="uni20B6" horiz-adv-x="666" unicode="⃊" d="M169 367h235q82 0 126.5 37.5t44.5 106.5q0 68 -44.5 105.5t-126.5 37.5h-235v-287zM119 0v164h-95v46h95v112h-95v45h95v333h289q103 0 160 -51.5t57 -137.5q0 -85 -57 -137t-160 -52h-239v-112h304v-46h-304v-164h-50z"/>
<glyph glyph-name="uni20B6" horiz-adv-x="666" unicode="⃉" d="M169 367h235q82 0 126.5 37.5t44.5 106.5q0 68 -44.5 105.5t-126.5 37.5h-235v-287zM119 0v164h-95v46h95v112h-95v45h95v333h289q103 0 160 -51.5t57 -137.5q0 -85 -57 -137t-160 -52h-239v-112h304v-46h-304v-164h-50z"/>
<glyph glyph-name="uni20B6" horiz-adv-x="666" unicode="⃈" d="M169 367h235q82 0 126.5 37.5t44.5 106.5q0 68 -44.5 105.5t-126.5 37.5h-235v-287zM119 0v164h-95v46h95v112h-95v45h95v333h289q103 0 160 -51.5t57 -137.5q0 -85 -57 -137t-160 -52h-239v-112h304v-46h-304v-164h-50z"/>
<glyph glyph-name="uni20B6" horiz-adv-x="666" unicode="⃇" d="M169 367h235q82 0 126.5 37.5t44.5 106.5q0 68 -44.5 105.5t-126.5 37.5h-235v-287zM119 0v164h-95v46h95v112h-95v45h95v333h289q103 0 160 -51.5t57 -137.5q0 -85 -57 -137t-160 -52h-239v-112h304v-46h-304v-164h-50z"/>
<glyph glyph-name="uni20B6" horiz-adv-x="666" unicode="⃆" d="M169 367h235q82 0 126.5 37.5t44.5 106.5q0 68 -44.5 105.5t-126.5 37.5h-235v-287zM119 0v164h-95v46h95v112h-95v45h95v333h289q103 0 160 -51.5t57 -137.5q0 -85 -57 -137t-160 -52h-239v-112h304v-46h-304v-164h-50z"/>
<glyph glyph-name="uni20B6" horiz-adv-x="666" unicode="⃅" d="M169 367h235q82 0 126.5 37.5t44.5 106.5q0 68 -44.5 105.5t-126.5 37.5h-235v-287zM119 0v164h-95v46h95v112h-95v45h95v333h289q103 0 160 -51.5t57 -137.5q0 -85 -57 -137t-160 -52h-239v-112h304v-46h-304v-164h-50z"/>
<glyph glyph-name="uni20B6" horiz-adv-x="666" unicode="⃄" d="M169 367h235q82 0 126.5 37.5t44.5 106.5q0 68 -44.5 105.5t-126.5 37.5h-235v-287zM119 0v164h-95v46h95v112h-95v45h95v333h289q103 0 160 -51.5t57 -137.5q0 -85 -57 -137t-160 -52h-239v-112h304v-46h-304v-164h-50z"/>
<glyph glyph-name="uni20B6" horiz-adv-x="666" unicode="⃃" d="M169 367h235q82 0 126.5 37.5t44.5 106.5q0 68 -44.5 105.5t-126.5 37.5h-235v-287zM119 0v164h-95v46h95v112h-95v45h95v333h289q103 0 160 -51.5t57 -137.5q0 -85 -57 -137t-160 -52h-239v-112h304v-46h-304v-164h-50z"/>
<glyph glyph-name="uni20B6" horiz-adv-x="666" unicode="⃂" d="M169 367h235q82 0 126.5 37.5t44.5 106.5q0 68 -44.5 105.5t-126.5 37.5h-235v-287zM119 0v164h-95v46h95v112h-95v45h95v333h289q103 0 160 -51.5t57 -137.5q0 -85 -57 -137t-160 -52h-239v-112h304v-46h-304v-164h-50z"/>
<glyph glyph-name="uni20B6" horiz-adv-x="666" unicode="⃁" d="M169 367h235q82 0 126.5 37.5t44.5 106.5q0 68 -44.5 105.5t-126.5 37.5h-235v-287zM119 0v164h-95v46h95v112h-95v45h95v333h289q103 0 160 -51.5t57 -137.5q0 -85 -57 -137t-160 -52h-239v-112h304v-46h-304v-164h-50z"/>
<glyph glyph-name="uni20B6" horiz-adv-x="666" unicode="⃀" d="M169 367h235q82 0 126.5 37.5t44.5 106.5q0 68 -44.5 105.5t-126.5 37.5h-235v-287zM119 0v164h-95v46h95v112h-95v45h95v333h289q103 0 160 -51.5t57 -137.5q0 -85 -57 -137t-160 -52h-239v-112h304v-46h-304v-164h-50z"/>
<glyph glyph-name="uni20B6" horiz-adv-x="666" unicode="₿" d="M169 367h235q82 0 126.5 37.5t44.5 106.5q0 68 -44.5 105.5t-126.5 37.5h-235v-287zM119 0v164h-95v46h95v112h-95v45h95v333h289q103 0 160 -51.5t57 -137.5q0 -85 -57 -137t-160 -52h-239v-112h304v-46h-304v-164h-50z"/>
<glyph glyph-name="uni20B6" horiz-adv-x="666" unicode="₾" d="M169 367h235q82 0 126.5 37.5t44.5 106.5q0 68 -44.5 105.5t-126.5 37.5h-235v-287zM119 0v164h-95v46h95v112h-95v45h95v333h289q103 0 160 -51.5t57 -137.5q0 -85 -57 -137t-160 -52h-239v-112h304v-46h-304v-164h-50z"/>
<glyph glyph-name="uni20B6" horiz-adv-x="666" unicode="₽" d="M169 367h235q82 0 126.5 37.5t44.5 106.5q0 68 -44.5 105.5t-126.5 37.5h-235v-287zM119 0v164h-95v46h95v112h-95v45h95v333h289q103 0 160 -51.5t57 -137.5q0 -85 -57 -137t-160 -52h-239v-112h304v-46h-304v-164h-50z"/>
<glyph glyph-name="uni20B6" horiz-adv-x="666" unicode="₼" d="M169 367h235q82 0 126.5 37.5t44.5 106.5q0 68 -44.5 105.5t-126.5 37.5h-235v-287zM119 0v164h-95v46h95v112h-95v45h95v333h289q103 0 160 -51.5t57 -137.5q0 -85 -57 -137t-160 -52h-239v-112h304v-46h-304v-164h-50z"/>
<glyph glyph-name="uni20B6" horiz-adv-x="666" unicode="₻" d="M169 367h235q82 0 126.5 37.5t44.5 106.5q0 68 -44.5 105.5t-126.5 37.5h-235v-287zM119 0v164h-95v46h95v112h-95v45h95v333h289q103 0 160 -51.5t57 -137.5q0 -85 -57 -137t-160 -52h-239v-112h304v-46h-304v-164h-50z"/>
<glyph glyph-name="uni20B6" horiz-adv-x="666" unicode="₺" d="M169 367h235q82 0 126.5 37.5t44.5 106.5q0 68 -44.5 105.5t-126.5 37.5h-235v-287zM119 0v164h-95v46h95v112h-95v45h95v333h289q103 0 160 -51.5t57 -137.5q0 -85 -57 -137t-160 -52h-239v-112h304v-46h-304v-164h-50z"/>
<glyph glyph-name="uni20B6" horiz-adv-x="666" unicode="₹" d="M169 367h235q82 0 126.5 37.5t44.5 106.5q0 68 -44.5 105.5t-126.5 37.5h-235v-287zM119 0v164h-95v46h95v112h-95v45h95v333h289q103 0 160 -51.5t57 -137.5q0 -85 -57 -137t-160 -52h-239v-112h304v-46h-304v-164h-50z"/>
<glyph glyph-name="uni20B6" horiz-adv-x="666" unicode="₷" d="M169 367h235q82 0 126.5 37.5t44.5 106.5q0 68 -44.5 105.5t-126.5 37.5h-235v-287zM119 0v164h-95v46h95v112h-95v45h95v333h289q103 0 160 -51.5t57 -137.5q0 -85 -57 -137t-160 -52h-239v-112h304v-46h-304v-164h-50z"/>
<glyph glyph-name="uni2215" horiz-adv-x="503" unicode="∕" d="M28 0l409 700h51l-409 -700h-51z"/>
</font>
</defs>
</svg>
